<svg width="616" height="730" viewBox="0 0 616 730" fill="none" xmlns="http://www.w3.org/2000/svg">
<path d="M360.858 215.419C360.858 304.301 313.88 257.887 255.929 257.887C197.979 257.887 151 304.301 151 215.419C151 126.537 197.979 0 255.929 0C313.88 0 360.858 126.537 360.858 215.419Z" fill="black"/>
<path d="M465.787 215.419C465.787 304.301 418.809 257.887 360.858 257.887C302.907 257.887 255.929 304.301 255.929 215.419C255.929 126.537 302.907 0 360.858 0C418.809 0 465.787 126.537 465.787 215.419Z" fill="black"/>
<path d="M145.233 239.255C141.543 245.832 140 250 140 250C140 246.119 141.835 242.538 145.233 239.255C158.359 215.863 198.645 162.002 293.246 156.877C294.6 122.008 298.463 54 308 54C325.29 54 331.069 122.994 332.88 157.628C421.52 166.007 459.205 218.196 471.3 240.216C474.357 243.244 476 246.506 476 250C476 250 474.606 246.235 471.3 240.216C433.878 203.15 184.609 201.221 145.233 239.255Z" fill="#545454"/>
<path d="M616 618.049C616 800.027 478.104 705 308 705C137.896 705 0 800.027 0 618.049C0 436.072 78 177 308 177C538 177 616 436.072 616 618.049Z" fill="black"/>
</svg>
