<svg width="2900" height="2600" viewBox="0 0 2900 2600" fill="none" xmlns="http://www.w3.org/2000/svg">
<path d="M2359 2397C1887 2157 2359 2036.31 2359 1526C2359 1356.87 2313.56 1198.36 2234.22 1062C2074 1302 1783.18 1446 1442 1446C1156.94 1446 834 1254 725.526 934C591.597 1094.33 511 1300.75 511 1526C511 2084.33 1077 2271.12 1496 2333C1639 2357 2056 2397 2359 2397Z" fill="#E366AD"/>
<path d="M1442 1446C1156.94 1446 834 1254 725.526 934C685.349 982.098 649.971 1034.34 620.129 1090C732.42 1260.67 1054 1572 1442 1572C1830 1572 2167.05 1327.33 2297.08 1210C2276.39 1143.83 2268.46 1120.85 2234.23 1062C2074 1302 1783.18 1446 1442 1446Z" fill="white"/>
<ellipse cx="1453.95" cy="1800.02" rx="308.946" ry="317.296" fill="#F99A3D"/>
<path d="M1490.57 1683.2C1490.36 1681.17 1488.88 1675.8 1484.87 1670.9C1479.2 1663.99 1452.07 1660.05 1417.98 1654.31C1396.07 1650.62 1378.6 1646.12 1357.3 1642.06C1317.05 1634.39 1307.12 1623.53 1300.16 1614.98C1292.04 1605.02 1298.75 1594.03 1301.94 1588.16C1305.13 1582.29 1323.52 1579.36 1345.58 1577.94C1359.3 1577.06 1370.15 1591.88 1380.91 1602.5C1393.59 1615.01 1419.47 1579.02 1429.72 1574.43C1433.01 1572.96 1436.75 1573.59 1440.78 1574.14C1446.33 1574.9 1450.79 1578.39 1454.18 1582.27C1462.4 1591.66 1460.59 1603.01 1459.95 1610.94C1459.69 1614.18 1458.89 1617.53 1458.57 1619.02C1456.96 1626.46 1472.01 1600.91 1490.18 1591.7C1494.97 1589.27 1500.88 1589.37 1504.54 1589.63C1508.21 1589.9 1509.89 1591.18 1511.18 1593.5C1517.58 1605 1509.3 1614.93 1508.23 1615.96C1506.47 1617.65 1512.87 1610.69 1518.07 1608.38C1523.21 1606.09 1528.61 1605.67 1532.86 1606.22C1534.94 1606.49 1536.26 1608.61 1536.92 1610.56C1537.57 1612.51 1537.36 1614.72 1536.41 1616.86C1534.44 1621.3 1528.04 1624.76 1522.82 1630.84C1519.69 1634.49 1523.29 1642.44 1525.31 1646.4C1527.34 1650.37 1529.65 1650.92 1536 1650.28C1552.8 1648.6 1565.61 1645 1569.86 1642.14C1582.06 1633.92 1573.31 1612.06 1565.99 1597.75C1562.25 1590.44 1548.5 1581.44 1526.83 1567.58C1514.64 1559.79 1498.28 1552.64 1482.75 1546.81C1467.21 1540.97 1452.55 1537.23 1441.84 1534.84C1431.13 1532.45 1424.82 1531.53 1443.9 1535.8C1462.98 1540.06 1507.65 1549.55 1533.82 1555.62C1566.58 1563.23 1575.97 1568.93 1581.59 1574.02C1592.54 1583.91 1593 1599.31 1595.12 1607.58C1597.47 1616.74 1608.93 1582.91 1618.28 1578.33C1620.39 1577.3 1622.53 1578.04 1624.98 1579.15C1641.97 1586.81 1651.02 1617.4 1652.54 1638.3C1653.06 1645.47 1645.23 1649.85 1638.65 1653.18C1632.08 1656.51 1623.13 1657.46 1617.69 1658.57C1606.52 1660.85 1642.16 1668.74 1647.43 1675.53C1648.57 1677.01 1645.24 1679.31 1642.89 1680.63C1630.5 1687.59 1613.53 1683.44 1611.61 1683.71C1609.57 1684 1641.52 1693.56 1684.78 1705.06C1700.51 1709.24 1703.4 1710.67 1705.66 1712.35C1719.52 1722.62 1712.62 1751.45 1707.21 1766.19C1702.78 1778.27 1690.76 1787.44 1676.42 1796.44C1671.59 1799.48 1664.05 1801.89 1646.37 1806.16C1628.68 1810.43 1600.68 1815.93 1581.94 1818.86C1554.77 1823.11 1538.94 1821.06 1524.94 1818.2C1509.77 1815.1 1498.93 1809.76 1490.45 1804.13C1477.67 1795.63 1467.25 1785.84 1458.34 1780.29C1449.81 1774.97 1427.41 1767.33 1398.51 1758.15C1370.26 1749.17 1340.37 1756.12 1327.11 1760.2C1314.9 1763.96 1304.39 1784.41 1298.79 1799.4C1296.92 1804.43 1300.48 1809.35 1302.7 1813.42C1306.7 1820.73 1319.78 1824.74 1368.81 1831.57C1404.2 1836.51 1470.64 1839.07 1508.93 1842.24C1547.22 1845.42 1555.64 1847.07 1557.24 1854.71C1558.84 1862.36 1553.37 1875.95 1524.04 1884.46C1494.72 1892.97 1441.7 1895.99 1413.13 1897.37M1413.13 1897.37C1382.06 1898.86 1377.53 1898 1374.24 1898.82C1372.62 1899.23 1372 1901.3 1371.88 1902.98C1371.65 1906.33 1373.89 1909.48 1376.22 1912.44C1377.71 1913.93 1379.81 1915.4 1382.37 1916.16C1384.93 1916.92 1387.87 1916.92 1390.91 1916.92C1414.59 1960.18 1481.01 2036.32 1557.24 1994.72C1633.48 1953.12 1674.03 1903.88 1684.78 1884.46C1699.47 1902.55 1712.57 1949.92 1647.43 1994.72C1565.99 2050.72 1563.16 2146.18 1490.57 2050.72C1417.98 1955.27 1345.58 2072.53 1345.58 1994.72C1345.58 1932.48 1314.39 1895.28 1298.79 1884.46C1274.29 1905.21 1233.04 1951.52 1264 1970.72C1302.7 1994.72 1208 2010.77 1204 1884.46C1200.8 1783.41 1229.33 1811.86 1244 1838.72C1217.33 1815.94 1172 1758.78 1204 1712.35C1236 1665.92 1270.67 1710.58 1284 1738.72C1272.04 1719.36 1259.03 1680.63 1302.7 1680.63C1346.38 1680.63 1337.17 1696.91 1327.11 1705.06M1413.13 1897.37C1462.84 1905.86 1551.46 1932.41 1508.23 1970.72C1454.18 2018.61 1575.79 1970.17 1611.61 1912.44C1647.43 1854.71 1622.42 1829.77 1707.21 1842.24M1327.11 1705.06C1331.4 1677.34 1320.8 1626.8 1244 1646.4M1327.11 1705.06C1374.68 1683.77 1464.63 1660.71 1443.9 1738.72C1417.98 1836.24 1640.26 1777.57 1617.69 1758.15C1599.63 1742.61 1549.59 1757.04 1526.83 1766.19C1511.03 1748.74 1496.75 1712.08 1565.99 1705.06" stroke="#A84C0F" stroke-width="10"/>
<path d="M1906 1180.02C1906 1355.26 2044.32 1497.31 2214.95 1497.31C2277.78 1497.31 2336.22 1478.05 2385 1444.96C2353 1150.76 2193 945.069 2117 879C1994.38 921.064 1906 1039.94 1906 1180.02Z" fill="#F99A3D"/>
<path d="M2245.87 1050.9C2240.2 1043.99 2213.07 1040.05 2178.98 1034.31C2157.07 1030.62 2139.6 1026.12 2118.3 1022.06C2078.05 1014.39 2068.12 1003.53 2061.16 994.981C2053.04 985.015 2059.75 974.029 2062.94 968.165C2066.13 962.287 2084.52 959.362 2106.58 957.944C2120.3 957.061 2131.15 971.882 2141.91 982.495C2154.59 995.011 2168.72 962.531 2178.98 957.944M2318.24 1198.2C2293.55 1197.54 2299.94 1201.06 2285.94 1198.2C2270.77 1195.1 2259.93 1189.76 2251.45 1184.13C2238.67 1175.63 2228.25 1165.84 2219.34 1160.29C2210.81 1154.97 2188.41 1147.33 2159.51 1138.15C2131.26 1129.17 2101.37 1136.12 2088.11 1140.2C2075.9 1143.96 2065.39 1164.41 2059.79 1179.4C2057.92 1184.43 2061.48 1189.35 2063.7 1193.42C2067.7 1200.73 2080.78 1204.74 2129.81 1211.57C2165.2 1216.51 2231.64 1219.07 2269.93 1222.24C2308.22 1225.42 2316.64 1227.07 2318.24 1234.71C2319.84 1242.36 2314.37 1255.95 2285.04 1264.46C2255.72 1272.97 2202.7 1275.99 2174.13 1277.37M2174.13 1277.37C2143.06 1278.86 2138.53 1278 2135.24 1278.82C2133.62 1279.23 2133 1281.3 2132.88 1282.98C2132.65 1286.33 2134.89 1289.48 2137.22 1292.44C2138.71 1293.93 2140.81 1295.4 2143.37 1296.16C2145.93 1296.92 2148.87 1296.92 2151.91 1296.92C2175.59 1340.18 2242.01 1416.32 2318.24 1374.72C2337.38 1364.28 2354.27 1353.36 2369 1342.54M2174.13 1277.37C2223.84 1285.86 2312.46 1312.41 2269.23 1350.72C2221.36 1393.13 2316.1 1341.6 2359 1305.44M2379 1402.72C2297.56 1458.72 2291.12 1482.72 2251.57 1430.72C2178.98 1335.27 2106.58 1452.53 2106.58 1374.72C2106.58 1312.48 2075.39 1275.28 2059.79 1264.46C2035.29 1285.21 2005 1305.44 2025 1350.72C2043.4 1392.38 1969 1390.77 1965 1264.46C1963.66 1222.24 2001.33 1202.86 2016 1229.72C2016 1160.29 1933 1138.78 1965 1092.35C1997 1045.92 2031.67 1090.58 2045 1118.72C2033.04 1099.36 2020.03 1060.63 2063.7 1060.63C2107.38 1060.63 2098.17 1076.91 2088.11 1085.06M2088.11 1085.06C2092.4 1057.34 2081.8 1006.8 2005 1026.4M2088.11 1085.06C2135.68 1063.77 2225.63 1040.71 2204.9 1118.72M2276.83 1146.19C2265.76 1133.97 2255.44 1112.32 2274.04 1098.03" stroke="#A84C0F" stroke-width="10"/>
<path d="M969 1180.02C969 1355.26 830.68 1497.31 660.054 1497.31C597.224 1497.31 538.775 1478.05 490 1444.96C522 1150.76 682 945.069 758 879C880.617 921.064 969 1039.94 969 1180.02Z" fill="#F99A3D"/>
<path d="M629.135 1050.9C634.799 1043.99 661.929 1040.05 696.021 1034.31C717.931 1030.62 735.395 1026.12 756.703 1022.06C796.951 1014.39 806.878 1003.53 813.841 994.981C821.958 985.015 815.248 974.029 812.065 968.165C808.874 962.287 790.483 959.362 768.422 957.944C754.703 957.061 743.848 971.882 733.092 982.495C720.408 995.011 706.279 962.531 696.021 957.944M556.757 1198.2C581.454 1197.54 575.061 1201.06 589.057 1198.2C604.228 1195.1 615.073 1189.76 623.545 1184.13C636.334 1175.63 646.748 1165.84 655.657 1160.29C664.186 1154.97 686.594 1147.33 715.49 1138.15C743.745 1129.17 773.63 1136.12 786.893 1140.2C799.097 1143.96 809.611 1164.41 815.206 1179.4C817.081 1184.43 813.522 1189.35 811.295 1193.42C807.3 1200.73 794.223 1204.74 745.186 1211.57C709.798 1216.51 643.356 1219.07 605.067 1222.24C566.779 1225.42 558.358 1227.07 556.757 1234.71C555.155 1242.36 560.629 1255.95 589.956 1264.46C619.282 1272.97 672.296 1275.99 700.87 1277.37M700.87 1277.37C731.943 1278.86 736.467 1278 739.758 1278.82C741.381 1279.23 741.998 1281.3 742.116 1282.98C742.352 1286.33 740.109 1289.48 737.781 1292.44C736.294 1293.93 734.189 1295.4 731.631 1296.16C729.073 1296.92 726.125 1296.92 723.089 1296.92C699.41 1340.18 632.994 1416.32 556.757 1374.72C537.62 1364.28 520.732 1353.36 506 1342.54M700.87 1277.37C651.156 1285.86 562.537 1312.41 605.773 1350.72C653.636 1393.13 558.903 1341.6 516 1305.44M496 1402.72C577.436 1458.72 583.882 1482.72 623.428 1430.72C696.021 1335.27 768.422 1452.53 768.422 1374.72C768.422 1312.48 799.611 1275.28 815.206 1264.46C839.705 1285.21 870 1305.44 850 1350.72C831.599 1392.38 906 1390.77 910 1264.46C911.337 1222.24 873.667 1202.86 859 1229.72C859 1160.29 942 1138.78 910 1092.35C878 1045.92 843.333 1090.58 830 1118.72C841.962 1099.36 854.969 1060.63 811.295 1060.63C767.621 1060.63 776.83 1076.91 786.893 1085.06M786.893 1085.06C782.595 1057.34 793.199 1006.8 870 1026.4M786.893 1085.06C739.323 1063.77 649.367 1040.71 670.102 1118.72M598.173 1146.19C609.236 1133.97 619.556 1112.32 600.956 1098.03" stroke="#A84C0F" stroke-width="10"/>
</svg>
