<svg width="2900" height="2600" viewBox="0 0 2900 2600" fill="none" xmlns="http://www.w3.org/2000/svg">
<path d="M2359 2399C1887 2159 2359 2038.31 2359 1528C2359 1382.73 2325.48 1245.29 2265.75 1123L1427 1528L535.671 1315C519.537 1383.38 511 1454.69 511 1528C511 2086.33 1077 2273.12 1496 2335C1639 2359 2056 2399 2359 2399Z" fill="#88C83A"/>
<path d="M2359 2399C1887 2159 2359 2038.31 2359 1528C2120.45 1691.67 1422.5 1961.4 539.169 1731C658.455 2133.65 1132.53 2281.32 1496 2335C1639 2359 2056 2399 2359 2399Z" fill="#FE8300"/>
<path d="M1416 1407.56L563 1179L515 1315L1416 1571L2315 1139L2251 1019L1416 1407.56Z" fill="#FCFDFF" stroke="#88C83A" stroke-width="5" stroke-linecap="round"/>
<path d="M1639 1467.31L563 1179L515 1315L1416 1571L1639 1467.31Z" fill="#FCFDFF" stroke="#88C83A" stroke-width="5" stroke-linecap="round"/>
<path d="M1645.75 1495.75L1780.71 1479.02L2018.96 1385L2048.48 1623.18L1802.36 1653.68L1734.88 1662.05C1765.56 1807.42 1865.32 2112.65 2018.96 2170.58C1845.68 2260.52 1840.12 2261.67 1859 2251L1680.65 1987C1695.66 2060.82 1714.74 2127.51 1729.39 2170.58L1507 2211C1553.37 2088.55 1506.84 1901.8 1507 1747C1507.16 1592.2 1598.39 1547.3 1645.75 1495.75Z" fill="#1A9459"/>
<path d="M1645.75 1495.75L1780.71 1479.02M1645.75 1495.75L1667.39 1670.41M1645.75 1495.75C1598.39 1547.3 1507.16 1592.2 1507 1747C1506.84 1901.8 1553.37 2088.55 1507 2211L1729.39 2170.58C1714.74 2127.51 1695.66 2060.82 1680.65 1987M1780.71 1479.02L1802.36 1653.68M1780.71 1479.02L2018.96 1385L2048.48 1623.18L1802.36 1653.68M1802.36 1653.68L1734.88 1662.05M1667.39 1670.41L1734.88 1662.05M1667.39 1670.41C1645.67 1757.18 1658.84 1879.63 1680.65 1987M1734.88 1662.05C1765.56 1807.42 1865.32 2112.65 2018.96 2170.58C1845.68 2260.52 1840.12 2261.67 1859 2251L1680.65 1987" stroke="white" stroke-width="12"/>
</svg>
