<svg width="2900" height="2600" viewBox="0 0 2900 2600" fill="none" xmlns="http://www.w3.org/2000/svg">
<path d="M2359.02 2399.05C1887.02 2159.05 2359.02 2038.36 2359.02 1528.05C2359.02 1329.54 2296.42 1145.65 2189.89 995.043C2051 1119.04 1746.82 1367.04 1435.02 1367.04C1161.85 1367.04 855 1083.04 747.197 911.043C600.35 1074.64 511.02 1290.91 511.02 1528.05C511.02 2086.38 1077.02 2273.16 1496.02 2335.05C1639.02 2359.05 2056.02 2399.05 2359.02 2399.05Z" fill="#8A3C09"/>
<path d="M2359.02 2399.05C1887.02 2159.05 2359.02 2038.36 2359.02 1528.05C2359.02 1360.16 2314.24 1202.73 2235.98 1067.04C2039 1243.04 1777.44 1447.04 1435.02 1447.04C1126.75 1447.04 827 1167.04 685.875 987.043C575.863 1139.11 511.02 1326.01 511.02 1528.05C511.02 2086.38 1077.02 2273.16 1496.02 2335.05C1639.02 2359.05 2056.02 2399.05 2359.02 2399.05Z" fill="#A84C0F"/>
<path d="M2426.64 2192.74C2424.87 2198.15 2422.03 2203.18 2418.29 2207.53C2414.54 2211.89 2409.98 2215.49 2404.85 2218.12C2399.72 2220.76 2394.14 2222.37 2388.42 2222.87C2382.7 2223.37 2376.96 2222.75 2371.52 2221.04L775.397 1615.75C769.982 1614.1 764.972 1611.39 760.657 1607.8C756.341 1604.21 752.805 1599.8 750.249 1594.82C747.694 1589.84 746.17 1584.4 745.765 1578.8C745.36 1573.2 746.082 1567.55 747.889 1562.18L774.591 1482.74C776.368 1477.33 779.209 1472.31 782.95 1467.95C786.691 1463.59 791.257 1459.99 796.383 1457.36C801.51 1454.73 807.095 1453.11 812.816 1452.61C818.537 1452.11 824.28 1452.73 829.711 1454.44L2425.75 2059.55C2431.18 2061.2 2436.21 2063.9 2440.54 2067.5C2444.87 2071.1 2448.42 2075.52 2450.98 2080.51C2453.54 2085.5 2455.07 2090.96 2455.47 2096.58C2455.87 2102.19 2455.13 2107.85 2453.31 2113.23L2426.64 2192.74Z" fill="black"/>
<path d="M2190.21 1872.78C2033.2 2055.8 1743.5 2187.17 1617.74 2079.28C1491.97 1971.38 1577.76 1665.07 1734.77 1482.06C1891.79 1299.04 2169.23 1135.14 2295 1243.04C2420.76 1350.93 2347.22 1689.76 2190.21 1872.78Z" fill="#8A3C09"/>
<path d="M1212.77 1664.95C1191.84 1789.73 1085.26 1872.75 980.77 1860.95C876.275 1849.14 799.8 1726.43 820.733 1601.64C841.667 1476.86 962.505 1439.23 1067 1451.04C1171.49 1462.84 1233.7 1540.16 1212.77 1664.95Z" fill="#8A3C09"/>
<path d="M1205.53 1635.21C1184.34 1761.54 1107.2 1844.15 1000.02 1832.04C892.843 1819.94 796.206 1717.69 817.398 1591.37C838.589 1465.04 947.82 1422.93 1055 1435.04C1162.18 1447.14 1226.72 1508.89 1205.53 1635.21Z" fill="#A84C0F"/>
<path d="M1877 1160.06C1877 1335.29 2015.32 1477.35 2185.95 1477.35C2248.78 1477.35 2307.22 1458.09 2356 1425C2324 1130.79 2151 935.105 2075 869.036C1952.38 911.101 1877 1019.98 1877 1160.06Z" fill="#8A3C09"/>
<path d="M1005.14 1161.02C999.316 1336.16 856.354 1473.54 685.822 1467.87C623.027 1465.79 565.25 1444.59 517.601 1409.9C559.357 1116.92 726.102 916.661 804.255 853.154C925.407 899.268 1009.79 1021.02 1005.14 1161.02Z" fill="#8A3C09"/>
<path d="M984.277 1122.8C978.455 1297.94 835.492 1435.33 664.96 1429.66C602.165 1427.57 544.388 1406.38 496.739 1371.69C538.495 1078.71 708.847 890.544 787 827.037C908.152 873.151 988.93 982.802 984.277 1122.8Z" fill="black"/>
<path d="M1906.89 1156.38C1914.18 1331.47 2053.68 1452.03 2224.16 1444.93C2286.94 1442.32 2333.64 1446.12 2381 1411.04C2336.79 1118.42 2154.43 923.952 2075.75 861.102C1954.99 908.229 1901.06 1016.42 1906.89 1156.38Z" fill="black"/>
<path d="M2178.58 1830.31C2019.63 2015.59 1735.62 2156.52 1619.72 2057.09C1503.82 1957.65 1599.92 1655.51 1758.86 1470.24C1917.81 1284.97 2133.43 1336.41 2249.33 1435.84C2365.23 1535.27 2337.52 1645.04 2178.58 1830.31Z" fill="#A84C0F"/>
<path d="M775.098 1504.56C762.227 1543.13 739.937 1643.94 706.279 1568.42C655.767 1551.56 578.787 1487.6 594.645 1440.08C610.502 1392.57 702.379 1411.88 752.89 1428.74C844.962 1422.14 787.97 1465.98 775.098 1504.56Z" fill="#B99300"/>
<path d="M2427.76 2156.04C2442.54 2119.79 2437.1 2074.42 2481.27 2092.43C2525.45 2110.44 2634.76 2158.06 2608 2223.7C2581.24 2289.33 2471.93 2241.7 2427.76 2223.69C2383.58 2205.68 2412.98 2192.28 2427.76 2156.04Z" fill="#B99300"/>
<ellipse cx="1276.72" cy="1711.76" rx="22" ry="145.077" transform="rotate(19.7298 1276.72 1711.76)" fill="#B99300"/>
<path d="M1365.86 1748.77C1352.52 1788.78 1346.33 1817.75 1334.63 1825.58C1326.11 1831.28 1320.9 1824.88 1300.39 1814.63C1289.52 1809.2 1302.47 1803.8 1325.53 1734.69C1348.59 1665.57 1350.26 1645.83 1360.74 1651.97C1377.09 1661.55 1392.27 1659.5 1392.51 1673.35C1392.76 1687.98 1377.7 1713.27 1365.86 1748.77Z" fill="#B99300"/>
</svg>
