<svg width="2900" height="2600" viewBox="0 0 2900 2600" fill="none" xmlns="http://www.w3.org/2000/svg">
<path d="M1303.15 1055.93C1292.82 1055.16 1283.23 1050.74 1276.48 1043.64C1269.74 1036.53 1266.36 1027.31 1267.1 1017.97C1266.36 1008.63 1269.74 999.405 1276.48 992.297C1283.23 985.189 1292.82 980.771 1303.15 980C1313.48 980.771 1323.07 985.189 1329.81 992.297C1336.56 999.405 1339.94 1008.63 1339.2 1017.97C1339.94 1027.31 1336.56 1036.53 1329.81 1043.64C1323.07 1050.74 1313.48 1055.16 1303.15 1055.93Z" fill="black"/>
<path d="M1567.52 1055.93C1557.18 1055.16 1547.6 1050.74 1540.85 1043.64C1534.1 1036.53 1530.73 1027.31 1531.47 1017.97C1530.73 1008.63 1534.1 999.405 1540.85 992.297C1547.6 985.189 1557.18 980.771 1567.52 980C1577.85 980.771 1587.43 985.189 1594.18 992.297C1600.93 999.405 1604.3 1008.63 1603.57 1017.97C1604.3 1027.31 1600.93 1036.53 1594.18 1043.64C1587.43 1050.74 1577.85 1055.16 1567.52 1055.93Z" fill="black"/>
<path d="M1137 967C1162.63 942.521 1282.21 938.232 1342 967" stroke="black" stroke-width="12"/>
<path d="M1533 967C1555.92 948.117 1676.75 938.372 1733 967" stroke="black" stroke-width="12"/>
</svg>
