<svg width="2900" height="2600" viewBox="0 0 2900 2600" fill="none" xmlns="http://www.w3.org/2000/svg">
<path d="M1188.31 1014.85C1231.25 990.03 1315.73 971.205 1364.23 989.534" stroke="black" stroke-width="16"/>
<path d="M1159.16 989.434C1207.79 961.119 1305.43 935.654 1363.41 950.399" stroke="black" stroke-width="14"/>
<path d="M1343.53 1027.19C1355.59 1124.13 1328.7 1127.48 1295.54 1131.6C1262.39 1135.73 1235.5 1139.07 1223.44 1042.13C1217.94 997.865 1249.05 993.775 1282.21 989.65C1315.37 985.524 1338.02 982.926 1343.53 1027.19Z" fill="black"/>
<path d="M1208.61 1122.26C1241.31 1129.03 1318.22 1138.5 1364.23 1122.26" stroke="black" stroke-width="13"/>
<circle cx="1299.11" cy="1029.23" r="36.3688" fill="white"/>
<path d="M1305.03 1096.89C1305.03 1110.9 1293.67 1122.26 1279.65 1122.26C1265.64 1122.26 1249.2 1097.37 1249.2 1083.36C1249.2 1069.35 1265.64 1071.52 1279.65 1071.52C1293.67 1071.52 1305.03 1082.88 1305.03 1096.89Z" fill="white"/>
<circle cx="1245.82" cy="1046.99" r="16.0699" fill="white"/>
<circle cx="1326.59" cy="1092.24" r="11.4181" fill="white"/>
<path d="M1674.65 1014.85C1631.7 990.03 1547.22 971.205 1498.72 989.534" stroke="black" stroke-width="16"/>
<path d="M1703.79 989.434C1655.17 961.119 1557.53 935.654 1499.54 950.399" stroke="black" stroke-width="14"/>
<path d="M1519.43 1027.19C1507.37 1124.13 1534.25 1127.48 1567.41 1131.6C1600.57 1135.73 1627.45 1139.07 1639.51 1042.13C1645.02 997.865 1613.9 993.775 1580.74 989.65C1547.59 985.524 1524.94 982.926 1519.43 1027.19Z" fill="black"/>
<path d="M1654.35 1122.26C1621.64 1129.03 1544.73 1138.5 1498.72 1122.26" stroke="black" stroke-width="13"/>
<circle cx="36.3688" cy="36.3688" r="36.3688" transform="matrix(-1 0 0 1 1601.88 992.859)" fill="white"/>
<path d="M1557.06 1083.36C1557.06 1097.37 1548.6 1122.26 1583.3 1122.26C1573.97 1122.26 1612.03 1110.9 1612.03 1096.89C1612.03 1082.88 1597.32 1071.52 1583.3 1071.52C1569.29 1071.52 1557.06 1069.35 1557.06 1083.36Z" fill="white"/>
<circle cx="16.0699" cy="16.0699" r="16.0699" transform="matrix(-1 0 0 1 1632.33 1046.99)" fill="white"/>
<circle cx="11.4181" cy="11.4181" r="11.4181" transform="matrix(-1 0 0 1 1547.78 1080.82)" fill="white"/>
</svg>
