<svg width="2900" height="2600" viewBox="0 0 2900 2600" fill="none" xmlns="http://www.w3.org/2000/svg">
<path d="M1405 932.5C1405 919.637 1394.57 907.301 1376 898.205C1357.44 889.11 1332.26 884 1306 884C1279.74 884 1254.56 889.11 1236 898.205C1217.43 907.301 1207 919.637 1207 932.5L1306 932.5H1405Z" fill="black"/>
<path d="M1670.98 932.5C1670.98 919.637 1660.55 907.301 1641.99 898.205C1623.42 889.11 1598.24 884 1571.98 884C1545.73 884 1520.55 889.11 1501.98 898.205C1483.42 907.301 1472.98 919.637 1472.98 932.5L1571.98 932.5H1670.98Z" fill="black"/>
</svg>
