<svg width="2900" height="2600" viewBox="0 0 2900 2600" fill="none" xmlns="http://www.w3.org/2000/svg">
<path d="M1391.81 933.542C1391.81 920.679 1377.17 908.343 1351.12 899.248C1325.07 890.152 1252.9 885.042 1252.9 885.042C1252.9 885.042 1176.55 875.947 1150.5 885.042C1140 899.248 1114 920.679 1114 933.542L1252.9 933.542H1391.81Z" fill="black"/>
<path d="M1765 933.542C1765 920.679 1744 890.455 1728.5 885.042C1702.45 875.947 1626.1 885.042 1626.1 885.042C1626.1 885.042 1553.93 890.152 1527.88 899.248C1501.83 908.343 1487.19 920.679 1487.19 933.542L1626.1 933.542H1765Z" fill="black"/>
</svg>
