<svg width="464" height="97" viewBox="0 0 464 97" fill="none" xmlns="http://www.w3.org/2000/svg">
<path d="M198 48.5C198 35.637 187.57 23.3008 169.004 14.2053C150.437 5.10981 125.256 9.7113e-07 99 0C72.7436 -9.71129e-07 47.5625 5.1098 28.9964 14.2053C10.4303 23.3008 3.96461e-06 35.637 0 48.5L99 48.5H198Z" fill="black"/>
<path d="M463.985 48.5C463.985 35.637 453.555 23.3008 434.988 14.2053C416.422 5.10981 391.241 9.7113e-07 364.985 0C338.728 -9.71129e-07 313.547 5.1098 294.981 14.2053C276.415 23.3008 265.985 35.637 265.985 48.5L364.985 48.5H463.985Z" fill="black"/>
</svg>
