<svg width="2900" height="2600" viewBox="0 0 2900 2600" fill="none" xmlns="http://www.w3.org/2000/svg">
<path d="M1393.81 923.5C1393.81 910.637 1379.17 898.301 1353.12 889.205C1327.07 880.11 1291.74 875 1254.9 875C1218.06 875 1182.73 880.11 1156.68 889.205C1130.63 898.301 1116 910.637 1116 923.5L1254.9 923.5H1393.81Z" fill="black"/>
<path d="M1767 923.5C1767 910.637 1752.37 898.301 1726.32 889.205C1700.27 880.11 1664.94 875 1628.1 875C1591.26 875 1555.93 880.11 1529.88 889.205C1503.83 898.301 1489.19 910.637 1489.19 923.5L1628.1 923.5H1767Z" fill="black"/>
</svg>
