<svg width="2900" height="2759" viewBox="0 0 2900 2759" fill="none" xmlns="http://www.w3.org/2000/svg">
<path d="M1429.2 162.788C1429.2 162.788 1798.02 263 1916.58 490.081C1959.67 444.831 2044.49 380.003 2058.02 319C1994.02 319 1963.78 287.677 1937.68 263C1797.8 130.762 1459.27 106.288 1459.27 106.288L1429.2 162.788Z" fill="#FE0000"/>
<path d="M1471.02 263.419C1471.02 352.301 1455.77 305.887 1436.95 305.887C1418.13 305.887 1402.88 352.301 1402.88 263.419C1402.88 174.536 1418.13 47.9999 1436.95 47.9999C1455.77 47.9999 1471.02 174.536 1471.02 263.419Z" fill="#B99300"/>
<path d="M1745.02 666.049C1745.02 848.027 1607.12 753 1437.02 753C1266.92 753 1129.02 848.027 1129.02 666.049C1129.02 484.072 1207.02 225 1437.02 225C1667.02 225 1745.02 484.072 1745.02 666.049Z" fill="black"/>
<path d="M1158.02 755C1158.02 755 1177.11 641.801 1413.13 631.579L1395.36 631.752C1395.36 631.752 1411.14 211 1437.02 211C1483.6 211 1488.78 630.843 1488.78 630.843L1467.05 631.055C1717.83 636.737 1730.02 755 1730.02 755C1682.02 811 1559.22 753.658 1437.02 755C1306.49 756.434 1218.02 811 1158.02 755Z" fill="#B99300"/>
<ellipse cx="1158" cy="714.993" rx="47" ry="63" fill="#B99300"/>
<ellipse cx="1716" cy="714.993" rx="47" ry="63" fill="#B99300"/>
<path d="M2359.02 2397.05C1887.02 2157.05 2359.02 2036.36 2359.02 1526.05C2359.02 1327.54 2296.42 1143.65 2189.89 993.043C2051 1117.04 1746.82 1365.04 1435.02 1365.04C1161.85 1365.04 855 1081.04 747.197 909.043C600.35 1072.64 511.02 1288.91 511.02 1526.05C511.02 2084.38 1077.02 2271.16 1496.02 2333.05C1639.02 2357.05 2056.02 2397.05 2359.02 2397.05Z" fill="#8A3C09"/>
<path d="M2359.02 2397.05C1887.02 2157.05 2359.02 2036.36 2359.02 1526.05C2359.02 1358.16 2314.24 1200.73 2235.98 1065.04C2039 1241.04 1777.44 1445.04 1435.02 1445.04C1126.75 1445.04 827 1165.04 685.875 985.043C575.863 1137.11 511.02 1324.01 511.02 1526.05C511.02 2084.38 1077.02 2271.16 1496.02 2333.05C1639.02 2357.05 2056.02 2397.05 2359.02 2397.05Z" fill="#A84C0F"/>
<path d="M2426.64 2190.74C2424.87 2196.15 2422.03 2201.18 2418.29 2205.53C2414.54 2209.89 2409.98 2213.49 2404.85 2216.12C2399.72 2218.76 2394.14 2220.37 2388.42 2220.87C2382.7 2221.37 2376.96 2220.75 2371.52 2219.04L775.397 1613.75C769.982 1612.1 764.972 1609.39 760.657 1605.8C756.341 1602.21 752.805 1597.8 750.249 1592.82C747.694 1587.84 746.17 1582.4 745.765 1576.8C745.36 1571.2 746.082 1565.55 747.889 1560.18L774.591 1480.74C776.368 1475.33 779.209 1470.31 782.95 1465.95C786.691 1461.59 791.257 1457.99 796.383 1455.36C801.51 1452.73 807.095 1451.11 812.816 1450.61C818.537 1450.11 824.28 1450.73 829.711 1452.44L2425.75 2057.55C2431.18 2059.2 2436.21 2061.9 2440.54 2065.5C2444.87 2069.1 2448.42 2073.52 2450.98 2078.51C2453.54 2083.5 2455.07 2088.96 2455.47 2094.58C2455.87 2100.19 2455.13 2105.85 2453.31 2111.23L2426.64 2190.74Z" fill="black"/>
<path d="M2190.21 1870.78C2033.2 2053.8 1743.5 2185.17 1617.74 2077.28C1491.97 1969.38 1577.76 1663.07 1734.77 1480.06C1891.79 1297.04 2169.23 1133.14 2295 1241.04C2420.76 1348.93 2347.22 1687.76 2190.21 1870.78Z" fill="#8A3C09"/>
<path d="M1212.77 1662.95C1191.84 1787.73 1085.26 1870.75 980.77 1858.95C876.275 1847.14 799.8 1724.43 820.733 1599.64C841.667 1474.86 962.505 1437.23 1067 1449.04C1171.49 1460.84 1233.7 1538.16 1212.77 1662.95Z" fill="#8A3C09"/>
<path d="M1205.53 1633.21C1184.34 1759.54 1107.2 1842.15 1000.02 1830.04C892.843 1817.94 796.206 1715.69 817.398 1589.37C838.589 1463.04 947.82 1420.93 1055 1433.04C1162.18 1445.14 1226.72 1506.89 1205.53 1633.21Z" fill="#A84C0F"/>
<path d="M1877 1158.06C1877 1333.29 2015.32 1475.35 2185.95 1475.35C2248.78 1475.35 2307.22 1456.09 2356 1423C2324 1128.79 2151 933.105 2075 867.036C1952.38 909.101 1877 1017.98 1877 1158.06Z" fill="#8A3C09"/>
<path d="M1005.14 1159.02C999.316 1334.16 856.354 1471.54 685.822 1465.87C623.027 1463.79 565.25 1442.59 517.601 1407.9C559.357 1114.92 726.102 914.661 804.255 851.154C925.407 897.268 1009.79 1019.02 1005.14 1159.02Z" fill="#8A3C09"/>
<path d="M984.277 1120.8C978.455 1295.94 835.492 1433.33 664.96 1427.66C602.165 1425.57 544.388 1404.38 496.739 1369.69C538.495 1076.71 708.847 888.544 787 825.037C908.152 871.151 988.93 980.802 984.277 1120.8Z" fill="black"/>
<path d="M1906.89 1154.38C1914.18 1329.47 2053.68 1450.03 2224.16 1442.93C2286.94 1440.32 2333.64 1444.12 2381 1409.04C2336.79 1116.42 2154.43 921.952 2075.75 859.102C1954.99 906.229 1901.06 1014.42 1906.89 1154.38Z" fill="black"/>
<path d="M2178.58 1828.31C2019.63 2013.59 1735.62 2154.52 1619.72 2055.09C1503.82 1955.65 1599.92 1653.51 1758.86 1468.24C1917.81 1282.97 2133.43 1334.41 2249.33 1433.84C2365.23 1533.27 2337.52 1643.04 2178.58 1828.31Z" fill="#A84C0F"/>
<path d="M775.098 1502.56C762.227 1541.13 739.937 1641.94 706.279 1566.42C655.767 1549.56 578.787 1485.6 594.645 1438.08C610.502 1390.57 702.379 1409.88 752.89 1426.74C844.962 1420.14 787.97 1463.98 775.098 1502.56Z" fill="#B99300"/>
<path d="M2427.76 2154.04C2442.54 2117.79 2437.1 2072.42 2481.27 2090.43C2525.45 2108.44 2634.76 2156.06 2608 2221.7C2581.24 2287.33 2471.93 2239.7 2427.76 2221.69C2383.58 2203.68 2412.98 2190.28 2427.76 2154.04Z" fill="#B99300"/>
<ellipse cx="1276.72" cy="1709.76" rx="22" ry="145.077" transform="rotate(19.7298 1276.72 1709.76)" fill="#B99300"/>
<path d="M1365.86 1746.77C1352.52 1786.78 1346.33 1815.75 1334.63 1823.58C1326.11 1829.28 1320.9 1822.88 1300.39 1812.63C1289.52 1807.2 1302.47 1801.8 1325.53 1732.69C1348.59 1663.57 1350.26 1643.83 1360.74 1649.97C1377.09 1659.55 1392.27 1657.5 1392.51 1671.35C1392.76 1685.98 1377.7 1711.27 1365.86 1746.77Z" fill="#B99300"/>
</svg>
