<svg width="2900" height="2600" viewBox="0 0 2900 2600" fill="none" xmlns="http://www.w3.org/2000/svg">
<circle cx="810.782" cy="937.228" r="162.772" fill="black"/>
<circle cx="862.604" cy="719.314" r="162.772" fill="black"/>
<circle cx="1010.09" cy="513.358" r="162.772" fill="black"/>
<circle cx="1226.68" cy="367.195" r="162.772" fill="black"/>
<circle cx="162.772" cy="162.772" r="162.772" transform="matrix(-1 0 0 1 2199.99 774.457)" fill="black"/>
<circle cx="162.772" cy="162.772" r="162.772" transform="matrix(-1 0 0 1 2148.17 556.542)" fill="black"/>
<circle cx="162.772" cy="162.772" r="162.772" transform="matrix(-1 0 0 1 2000.68 350.586)" fill="black"/>
<circle cx="162.772" cy="162.772" r="162.772" transform="matrix(-1 0 0 1 1784.09 204.424)" fill="black"/>
<circle cx="1439.28" cy="296.772" r="162.772" fill="black"/>
<path d="M1871.79 755.732C1871.79 854.78 1682.99 703.392 1472.32 684.814L1442.55 582.857L1411.92 684.814C1195.12 703.392 997.472 854.78 997.472 755.732C997.472 647.803 1187.66 451.571 1434.63 451.571C1681.6 451.571 1871.79 647.803 1871.79 755.732Z" fill="black"/>
<circle cx="889.178" cy="745.889" r="162.772" fill="black"/>
<circle cx="162.772" cy="162.772" r="162.772" transform="matrix(-1 0 0 1 2121.59 583.117)" fill="black"/>
</svg>
