<svg width="2900" height="2600" viewBox="0 0 2900 2600" fill="none" xmlns="http://www.w3.org/2000/svg">
<path d="M2359 2397C1887 2157 2359 2036.31 2359 1526C2359 1380.73 2325.48 1243.29 2265.75 1121L1427 1526L535.671 1313C519.537 1381.38 511 1452.69 511 1526C511 2084.33 1077 2271.12 1496 2333C1639 2357 2056 2397 2359 2397Z" fill="#88C83A"/>
<path d="M2359 2397C1887 2157 2359 2036.31 2359 1526C2120.45 1689.67 1422.5 1959.4 539.169 1729C658.455 2131.65 1132.53 2279.32 1496 2333C1639 2357 2056 2397 2359 2397Z" fill="#FE8300"/>
<path d="M1416 1405.56L563 1177L515 1313L1416 1569L2315 1137L2251 1017L1416 1405.56Z" fill="#FCFDFF" stroke="#88C83A" stroke-width="5" stroke-linecap="round"/>
<path d="M1639 1465.31L563 1177L515 1313L1416 1569L1639 1465.31Z" fill="#FCFDFF" stroke="#88C83A" stroke-width="5" stroke-linecap="round"/>
<path d="M1645.75 1493.75L1780.71 1477.02L2018.96 1383L2048.48 1621.18L1802.36 1651.68L1734.88 1660.05C1765.56 1805.42 1865.32 2110.65 2018.96 2168.58C1845.68 2258.52 1840.12 2259.67 1859 2249L1680.65 1985C1695.66 2058.82 1714.74 2125.51 1729.39 2168.58L1507 2209C1553.37 2086.55 1506.84 1899.8 1507 1745C1507.16 1590.2 1598.39 1545.3 1645.75 1493.75Z" fill="#1A9459"/>
<path d="M1645.75 1493.75L1780.71 1477.02M1645.75 1493.75L1667.39 1668.41M1645.75 1493.75C1598.39 1545.3 1507.16 1590.2 1507 1745C1506.84 1899.8 1553.37 2086.55 1507 2209L1729.39 2168.58C1714.74 2125.51 1695.66 2058.82 1680.65 1985M1780.71 1477.02L1802.36 1651.68M1780.71 1477.02L2018.96 1383L2048.48 1621.18L1802.36 1651.68M1802.36 1651.68L1734.88 1660.05M1667.39 1668.41L1734.88 1660.05M1667.39 1668.41C1645.67 1755.18 1658.84 1877.63 1680.65 1985M1734.88 1660.05C1765.56 1805.42 1865.32 2110.65 2018.96 2168.58C1845.68 2258.52 1840.12 2259.67 1859 2249L1680.65 1985" stroke="white" stroke-width="12"/>
<path d="M2058 798C2058 896.842 1467 738.332 1467 738.332L1431.5 617L1403 738.332C1082.51 753.793 805 896.842 805 798C805 693.618 1085.49 431 1431.5 431C1777.51 431 2058 693.618 2058 798Z" fill="black"/>
<ellipse cx="1428" cy="510.5" rx="33" ry="105.5" fill="#FEC300"/>
<circle cx="1427.5" cy="576.5" r="60.5" fill="#FEC300"/>
</svg>
