<svg width="2900" height="2600" viewBox="0 0 2900 2600" fill="none" xmlns="http://www.w3.org/2000/svg">
<circle cx="934.103" cy="714.768" r="142.041" fill="black"/>
<circle cx="1062.81" cy="535.043" r="142.041" fill="black"/>
<circle cx="1251.81" cy="407.496" r="142.041" fill="black"/>
<circle cx="142.041" cy="142.041" r="142.041" transform="matrix(-1 0 0 1 2055.94 572.727)" fill="black"/>
<circle cx="142.041" cy="142.041" r="142.041" transform="matrix(-1 0 0 1 1927.23 393.002)" fill="black"/>
<circle cx="142.041" cy="142.041" r="142.041" transform="matrix(-1 0 0 1 1738.23 265.455)" fill="black"/>
<circle cx="1437.33" cy="346.041" r="142.041" fill="black"/>
<path d="M1814.76 746.548C1814.76 832.982 1650.01 700.874 1466.17 684.663L1440.18 595.69L1413.46 684.663C1224.27 700.874 1051.79 832.982 1051.79 746.548C1051.79 652.365 1217.76 481.125 1433.28 481.125C1648.79 481.125 1814.76 652.365 1814.76 746.548Z" fill="black"/>
<ellipse cx="1435.1" cy="431.614" rx="106.096" ry="62.6141" fill="#F99A3D"/>
<path d="M1435 407V303" stroke="#FEC300" stroke-width="20" stroke-linecap="round"/>
<ellipse cx="1435" cy="303" rx="36" ry="15" fill="#FEC300"/>
<path d="M1388.37 409.255L1361.65 308.747" stroke="#FEC300" stroke-width="20" stroke-linecap="round"/>
<ellipse cx="1361.65" cy="308.747" rx="36" ry="15" transform="rotate(-14.8893 1361.65 308.747)" fill="#FEC300"/>
<path d="M1481.63 409.255L1508.35 308.747" stroke="#FEC300" stroke-width="20" stroke-linecap="round"/>
<ellipse cx="36" cy="15" rx="36" ry="15" transform="matrix(-0.966424 -0.256953 -0.256953 0.966424 1547 303.501)" fill="#FEC300"/>
<ellipse cx="1860.77" cy="647.02" rx="106.096" ry="62.6141" transform="rotate(30 1860.77 647.02)" fill="#F99A3D"/>
<path d="M1872.99 625.655L1924.99 535.588" stroke="#FEC300" stroke-width="20" stroke-linecap="round"/>
<ellipse cx="1924.99" cy="535.588" rx="36" ry="15" transform="rotate(30 1924.99 535.588)" fill="#FEC300"/>
<path d="M1831.48 604.292L1858.59 503.888" stroke="#FEC300" stroke-width="20" stroke-linecap="round"/>
<ellipse cx="1858.59" cy="503.888" rx="36" ry="15" transform="rotate(15.1107 1858.59 503.888)" fill="#FEC300"/>
<path d="M1912.25 650.923L1985.65 577.242" stroke="#FEC300" stroke-width="20" stroke-linecap="round"/>
<ellipse cx="36" cy="15" rx="36" ry="15" transform="matrix(-0.708471 -0.70574 -0.70574 0.708471 2021.74 592.022)" fill="#FEC300"/>
<ellipse cx="106.096" cy="62.6141" rx="106.096" ry="62.6141" transform="matrix(-0.866025 0.5 0.5 0.866025 1069.79 539.746)" fill="#F99A3D"/>
<path d="M996.995 625.655L944.995 535.588" stroke="#FEC300" stroke-width="20" stroke-linecap="round"/>
<ellipse cx="36" cy="15" rx="36" ry="15" transform="matrix(-0.866025 0.5 0.5 0.866025 968.671 504.598)" fill="#FEC300"/>
<path d="M1038.51 604.292L1011.39 503.888" stroke="#FEC300" stroke-width="20" stroke-linecap="round"/>
<ellipse cx="36" cy="15" rx="36" ry="15" transform="matrix(-0.965424 0.260684 0.260684 0.965424 1042.24 480.022)" fill="#FEC300"/>
<path d="M957.738 650.923L884.341 577.242" stroke="#FEC300" stroke-width="20" stroke-linecap="round"/>
<ellipse cx="884.341" cy="577.242" rx="36" ry="15" transform="rotate(-44.8893 884.341 577.242)" fill="#FEC300"/>
<path d="M2358 2398C1886 2158 2358 2037.31 2358 1527C2358 1357.87 2312.56 1199.36 2233.22 1063C2073 1303 1782.18 1447 1441 1447C1155.94 1447 833 1255 724.526 935C590.597 1095.33 510 1301.75 510 1527C510 2085.33 1076 2272.12 1495 2334C1638 2358 2055 2398 2358 2398Z" fill="#E366AD"/>
<path d="M1441 1447C1155.94 1447 833 1255 724.526 935C684.349 983.098 648.971 1035.34 619.129 1091C731.42 1261.67 1053 1573 1441 1573C1829 1573 2166.05 1328.33 2296.08 1211C2275.39 1144.83 2267.46 1121.85 2233.23 1063C2073 1303 1782.18 1447 1441 1447Z" fill="white"/>
<ellipse cx="1452.95" cy="1801.02" rx="308.946" ry="317.296" fill="#F99A3D"/>
<path d="M1489.57 1684.2C1489.36 1682.17 1487.88 1676.8 1483.87 1671.9C1478.2 1664.99 1451.07 1661.05 1416.98 1655.31C1395.07 1651.62 1377.6 1647.12 1356.3 1643.06C1316.05 1635.39 1306.12 1624.53 1299.16 1615.98C1291.04 1606.02 1297.75 1595.03 1300.94 1589.16C1304.13 1583.29 1322.52 1580.36 1344.58 1578.94C1358.3 1578.06 1369.15 1592.88 1379.91 1603.5C1392.59 1616.01 1418.47 1580.02 1428.72 1575.43C1432.01 1573.96 1435.75 1574.59 1439.78 1575.14C1445.33 1575.9 1449.79 1579.39 1453.18 1583.27C1461.4 1592.66 1459.59 1604.01 1458.95 1611.94C1458.69 1615.18 1457.89 1618.53 1457.57 1620.02C1455.96 1627.46 1471.01 1601.91 1489.18 1592.7C1493.97 1590.27 1499.88 1590.37 1503.54 1590.63C1507.21 1590.9 1508.89 1592.18 1510.18 1594.5C1516.58 1606 1508.3 1615.93 1507.23 1616.96C1505.47 1618.65 1511.87 1611.69 1517.07 1609.38C1522.21 1607.09 1527.61 1606.67 1531.86 1607.22C1533.94 1607.49 1535.26 1609.61 1535.92 1611.56C1536.57 1613.51 1536.36 1615.72 1535.41 1617.86C1533.44 1622.3 1527.04 1625.76 1521.82 1631.84C1518.69 1635.49 1522.29 1643.44 1524.31 1647.4C1526.34 1651.37 1528.65 1651.92 1535 1651.28C1551.8 1649.6 1564.61 1646 1568.86 1643.14C1581.06 1634.92 1572.31 1613.06 1564.99 1598.75C1561.25 1591.44 1547.5 1582.44 1525.83 1568.58C1513.64 1560.79 1497.28 1553.64 1481.75 1547.81C1466.21 1541.97 1451.55 1538.23 1440.84 1535.84C1430.13 1533.45 1423.82 1532.53 1442.9 1536.8C1461.98 1541.06 1506.65 1550.55 1532.82 1556.62C1565.58 1564.23 1574.97 1569.93 1580.59 1575.02C1591.54 1584.91 1592 1600.31 1594.12 1608.58C1596.47 1617.74 1607.93 1583.91 1617.28 1579.33C1619.39 1578.3 1621.53 1579.04 1623.98 1580.15C1640.97 1587.81 1650.02 1618.4 1651.54 1639.3C1652.06 1646.47 1644.23 1650.85 1637.65 1654.18C1631.08 1657.51 1622.13 1658.46 1616.69 1659.57C1605.52 1661.85 1641.16 1669.74 1646.43 1676.53C1647.57 1678.01 1644.24 1680.31 1641.89 1681.63C1629.5 1688.59 1612.53 1684.44 1610.61 1684.71C1608.57 1685 1640.52 1694.56 1683.78 1706.06C1699.51 1710.24 1702.4 1711.67 1704.66 1713.35C1718.52 1723.62 1711.62 1752.45 1706.21 1767.19C1701.78 1779.27 1689.76 1788.44 1675.42 1797.44C1670.59 1800.48 1663.05 1802.89 1645.37 1807.16C1627.68 1811.43 1599.68 1816.93 1580.94 1819.86C1553.77 1824.11 1537.94 1822.06 1523.94 1819.2C1508.77 1816.1 1497.93 1810.76 1489.45 1805.13C1476.67 1796.63 1466.25 1786.84 1457.34 1781.29C1448.81 1775.97 1426.41 1768.33 1397.51 1759.15C1369.26 1750.17 1339.37 1757.12 1326.11 1761.2C1313.9 1764.96 1303.39 1785.41 1297.79 1800.4C1295.92 1805.43 1299.48 1810.35 1301.7 1814.42C1305.7 1821.73 1318.78 1825.74 1367.81 1832.57C1403.2 1837.51 1469.64 1840.07 1507.93 1843.24C1546.22 1846.42 1554.64 1848.07 1556.24 1855.71C1557.84 1863.36 1552.37 1876.95 1523.04 1885.46C1493.72 1893.97 1440.7 1896.99 1412.13 1898.37M1412.13 1898.37C1381.06 1899.86 1376.53 1899 1373.24 1899.82C1371.62 1900.23 1371 1902.3 1370.88 1903.98C1370.65 1907.33 1372.89 1910.48 1375.22 1913.44C1376.71 1914.93 1378.81 1916.4 1381.37 1917.16C1383.93 1917.92 1386.87 1917.92 1389.91 1917.92C1413.59 1961.18 1480.01 2037.32 1556.24 1995.72C1632.48 1954.12 1673.03 1904.88 1683.78 1885.46C1698.47 1903.55 1711.57 1950.92 1646.43 1995.72C1564.99 2051.72 1562.16 2147.18 1489.57 2051.72C1416.98 1956.27 1344.58 2073.53 1344.58 1995.72C1344.58 1933.48 1313.39 1896.28 1297.79 1885.46C1273.29 1906.21 1232.04 1952.52 1263 1971.72C1301.7 1995.72 1207 2011.77 1203 1885.46C1199.8 1784.41 1228.33 1812.86 1243 1839.72C1216.33 1816.94 1171 1759.78 1203 1713.35C1235 1666.92 1269.67 1711.58 1283 1739.72C1271.04 1720.36 1258.03 1681.63 1301.7 1681.63C1345.38 1681.63 1336.17 1697.91 1326.11 1706.06M1412.13 1898.37C1461.84 1906.86 1550.46 1933.41 1507.23 1971.72C1453.18 2019.61 1574.79 1971.17 1610.61 1913.44C1646.43 1855.71 1621.42 1830.77 1706.21 1843.24M1326.11 1706.06C1330.4 1678.34 1319.8 1627.8 1243 1647.4M1326.11 1706.06C1373.68 1684.77 1463.63 1661.71 1442.9 1739.72C1416.98 1837.24 1639.26 1778.57 1616.69 1759.15C1598.63 1743.61 1548.59 1758.04 1525.83 1767.19C1510.03 1749.74 1495.75 1713.08 1564.99 1706.06" stroke="#A84C0F" stroke-width="10"/>
<path d="M1905 1181.02C1905 1356.26 2043.32 1498.31 2213.95 1498.31C2276.78 1498.31 2335.22 1479.05 2384 1445.96C2352 1151.76 2192 946.069 2116 880C1993.38 922.064 1905 1040.94 1905 1181.02Z" fill="#F99A3D"/>
<path d="M2244.87 1051.9C2239.2 1044.99 2212.07 1041.05 2177.98 1035.31C2156.07 1031.62 2138.6 1027.12 2117.3 1023.06C2077.05 1015.39 2067.12 1004.53 2060.16 995.981C2052.04 986.015 2058.75 975.029 2061.94 969.165C2065.13 963.287 2083.52 960.362 2105.58 958.944C2119.3 958.061 2130.15 972.882 2140.91 983.495C2153.59 996.011 2167.72 963.531 2177.98 958.944M2317.24 1199.2C2292.55 1198.54 2298.94 1202.06 2284.94 1199.2C2269.77 1196.1 2258.93 1190.76 2250.45 1185.13C2237.67 1176.63 2227.25 1166.84 2218.34 1161.29C2209.81 1155.97 2187.41 1148.33 2158.51 1139.15C2130.26 1130.17 2100.37 1137.12 2087.11 1141.2C2074.9 1144.96 2064.39 1165.41 2058.79 1180.4C2056.92 1185.43 2060.48 1190.35 2062.7 1194.42C2066.7 1201.73 2079.78 1205.74 2128.81 1212.57C2164.2 1217.51 2230.64 1220.07 2268.93 1223.24C2307.22 1226.42 2315.64 1228.07 2317.24 1235.71C2318.84 1243.36 2313.37 1256.95 2284.04 1265.46C2254.72 1273.97 2201.7 1276.99 2173.13 1278.37M2173.13 1278.37C2142.06 1279.86 2137.53 1279 2134.24 1279.82C2132.62 1280.23 2132 1282.3 2131.88 1283.98C2131.65 1287.33 2133.89 1290.48 2136.22 1293.44C2137.71 1294.93 2139.81 1296.4 2142.37 1297.16C2144.93 1297.92 2147.87 1297.92 2150.91 1297.92C2174.59 1341.18 2241.01 1417.32 2317.24 1375.72C2336.38 1365.28 2353.27 1354.36 2368 1343.54M2173.13 1278.37C2222.84 1286.86 2311.46 1313.41 2268.23 1351.72C2220.36 1394.13 2315.1 1342.6 2358 1306.44M2378 1403.72C2296.56 1459.72 2290.12 1483.72 2250.57 1431.72C2177.98 1336.27 2105.58 1453.53 2105.58 1375.72C2105.58 1313.48 2074.39 1276.28 2058.79 1265.46C2034.29 1286.21 2004 1306.44 2024 1351.72C2042.4 1393.38 1968 1391.77 1964 1265.46C1962.66 1223.24 2000.33 1203.86 2015 1230.72C2015 1161.29 1932 1139.78 1964 1093.35C1996 1046.92 2030.67 1091.58 2044 1119.72C2032.04 1100.36 2019.03 1061.63 2062.7 1061.63C2106.38 1061.63 2097.17 1077.91 2087.11 1086.06M2087.11 1086.06C2091.4 1058.34 2080.8 1007.8 2004 1027.4M2087.11 1086.06C2134.68 1064.77 2224.63 1041.71 2203.9 1119.72M2275.83 1147.19C2264.76 1134.97 2254.44 1113.32 2273.04 1099.03" stroke="#A84C0F" stroke-width="10"/>
<path d="M968 1181.02C968 1356.26 829.68 1498.31 659.054 1498.31C596.224 1498.31 537.775 1479.05 489 1445.96C521 1151.76 681 946.069 757 880C879.617 922.064 968 1040.94 968 1181.02Z" fill="#F99A3D"/>
<path d="M628.135 1051.9C633.799 1044.99 660.929 1041.05 695.021 1035.31C716.931 1031.62 734.395 1027.12 755.703 1023.06C795.951 1015.39 805.878 1004.53 812.841 995.981C820.958 986.015 814.248 975.029 811.065 969.165C807.874 963.287 789.483 960.362 767.422 958.944C753.703 958.061 742.848 972.882 732.092 983.495C719.408 996.011 705.279 963.531 695.021 958.944M555.757 1199.2C580.454 1198.54 574.061 1202.06 588.057 1199.2C603.228 1196.1 614.073 1190.76 622.545 1185.13C635.334 1176.63 645.748 1166.84 654.657 1161.29C663.186 1155.97 685.594 1148.33 714.49 1139.15C742.745 1130.17 772.63 1137.12 785.893 1141.2C798.097 1144.96 808.611 1165.41 814.206 1180.4C816.081 1185.43 812.522 1190.35 810.295 1194.42C806.3 1201.73 793.223 1205.74 744.186 1212.57C708.798 1217.51 642.356 1220.07 604.067 1223.24C565.779 1226.42 557.358 1228.07 555.757 1235.71C554.155 1243.36 559.629 1256.95 588.956 1265.46C618.282 1273.97 671.296 1276.99 699.87 1278.37M699.87 1278.37C730.943 1279.86 735.467 1279 738.758 1279.82C740.381 1280.23 740.998 1282.3 741.116 1283.98C741.352 1287.33 739.109 1290.48 736.781 1293.44C735.294 1294.93 733.189 1296.4 730.631 1297.16C728.073 1297.92 725.125 1297.92 722.089 1297.92C698.41 1341.18 631.994 1417.32 555.757 1375.72C536.62 1365.28 519.732 1354.36 505 1343.54M699.87 1278.37C650.156 1286.86 561.537 1313.41 604.773 1351.72C652.636 1394.13 557.903 1342.6 515 1306.44M495 1403.72C576.436 1459.72 582.882 1483.72 622.428 1431.72C695.021 1336.27 767.422 1453.53 767.422 1375.72C767.422 1313.48 798.611 1276.28 814.206 1265.46C838.705 1286.21 869 1306.44 849 1351.72C830.599 1393.38 905 1391.77 909 1265.46C910.337 1223.24 872.667 1203.86 858 1230.72C858 1161.29 941 1139.78 909 1093.35C877 1046.92 842.333 1091.58 829 1119.72C840.962 1100.36 853.969 1061.63 810.295 1061.63C766.621 1061.63 775.83 1077.91 785.893 1086.06M785.893 1086.06C781.595 1058.34 792.199 1007.8 869 1027.4M785.893 1086.06C738.323 1064.77 648.367 1041.71 669.102 1119.72M597.173 1147.19C608.236 1134.97 618.556 1113.32 599.956 1099.03" stroke="#A84C0F" stroke-width="10"/>
</svg>
