<svg width="2185" height="2456" viewBox="0 0 2185 2456" fill="none" xmlns="http://www.w3.org/2000/svg">
<path d="M266.446 1347.86C145.099 1136.04 107.415 821.235 239.917 745.325C372.42 669.414 624.933 861.147 746.28 1072.96C867.627 1284.77 746.947 1470.72 614.445 1546.63C481.942 1622.54 387.793 1559.67 266.446 1347.86Z" fill="#C01E1E"/>
<path d="M64.8324 1002.27C62.6676 1000.06 60.949 997.422 59.776 994.518C58.603 991.615 57.999 988.499 57.999 985.353C57.999 982.206 58.603 979.091 59.776 976.187C60.949 973.284 62.6676 970.649 64.8324 968.437L454.524 564.777C456.661 562.561 459.201 560.802 461.998 559.602C464.794 558.402 467.792 557.784 470.82 557.784C473.848 557.784 476.846 558.402 479.642 559.602C482.438 560.802 484.978 562.561 487.116 564.777L518.76 597.559C520.924 599.771 522.643 602.405 523.816 605.309C524.989 608.212 525.593 611.328 525.593 614.474C525.593 617.621 524.989 620.736 523.816 623.64C522.643 626.543 520.924 629.177 518.76 631.39L129.176 1035.05C127.038 1037.28 124.494 1039.04 121.691 1040.25C118.888 1041.46 115.883 1042.08 112.847 1042.08C109.811 1042.08 106.805 1041.46 104.003 1040.25C101.2 1039.04 98.6559 1037.28 96.5172 1035.05L64.8324 1002.27Z" fill="black"/>
<path d="M705.679 333.907C705.679 494.691 637.344 546.968 591.5 597.463C545.656 647.958 498.192 638.249 466.792 605.171C435.392 572.092 424.406 545.186 470.251 494.691C516.095 444.197 676.331 438.646 705.679 333.907Z" fill="#060606"/>
<path d="M752.281 134.722C753.987 175.511 750.647 241.41 709.087 289.757C704.894 189.525 622.226 135.854 620.52 95.0647C618.814 54.2759 648.142 17.5884 692.664 29.4279C737.186 41.2674 750.574 93.9329 752.281 134.722Z" fill="#060606"/>
<ellipse cx="224.269" cy="818.998" rx="117.613" ry="64.1377" transform="rotate(-40.4472 224.269 818.998)" fill="#C01E1E"/>
<path d="M2185 2456C1713 2216 2185 2095.31 2185 1585C2185 1074.69 1771.31 661 1261 661C750.689 661 337 1074.69 337 1585C337 2143.33 903 2330.12 1322 2392C1465 2416 1882 2456 2185 2456Z" fill="#C01E1E"/>
<ellipse cx="1279.95" cy="1749.3" rx="308.946" ry="317.296" fill="#F99A3D"/>
<path d="M1316.57 1632.48C1316.36 1630.45 1314.88 1625.08 1310.87 1620.18C1305.2 1613.27 1278.07 1609.32 1243.98 1603.58C1222.07 1599.9 1204.6 1595.4 1183.3 1591.34C1143.05 1583.66 1133.12 1572.81 1126.16 1564.26C1118.04 1554.29 1124.75 1543.31 1127.94 1537.44C1131.13 1531.56 1149.52 1528.64 1171.58 1527.22C1185.3 1526.34 1196.15 1541.16 1206.91 1551.77C1219.59 1564.29 1245.47 1528.29 1255.72 1523.71C1259.01 1522.24 1262.75 1522.86 1266.78 1523.41C1272.33 1524.17 1276.79 1527.67 1280.18 1531.55C1288.4 1540.94 1286.59 1552.29 1285.95 1560.21C1285.69 1563.46 1284.89 1566.8 1284.57 1568.3C1282.96 1575.74 1298.01 1550.18 1316.18 1540.98C1320.97 1538.55 1326.88 1538.64 1330.54 1538.91C1334.21 1539.17 1335.89 1540.46 1337.18 1542.77C1343.58 1554.27 1335.3 1564.21 1334.23 1565.24C1332.47 1566.93 1338.87 1559.97 1344.07 1557.66C1349.21 1555.37 1354.61 1554.95 1358.86 1555.5C1360.94 1555.77 1362.26 1557.88 1362.92 1559.84C1363.57 1561.79 1363.36 1563.99 1362.41 1566.14C1360.44 1570.58 1354.04 1574.04 1348.82 1580.12C1345.69 1583.77 1349.29 1591.71 1351.31 1595.68C1353.34 1599.64 1355.65 1600.19 1362 1599.56C1378.8 1597.88 1391.61 1594.28 1395.86 1591.42C1408.06 1583.2 1399.31 1561.33 1391.99 1547.03C1388.25 1539.71 1374.5 1530.72 1352.83 1516.86C1340.64 1509.07 1324.28 1501.92 1308.75 1496.09C1293.21 1490.25 1278.55 1486.5 1267.84 1484.11C1257.13 1481.72 1250.82 1480.81 1269.9 1485.07C1288.98 1489.34 1333.65 1498.82 1359.82 1504.9C1392.58 1512.51 1401.97 1518.21 1407.59 1523.3C1418.54 1533.19 1419 1548.59 1421.12 1556.85C1423.47 1566.02 1434.93 1532.18 1444.28 1527.61C1446.39 1526.58 1448.53 1527.32 1450.98 1528.42C1467.97 1536.08 1477.02 1566.67 1478.54 1587.58C1479.06 1594.75 1471.23 1599.12 1464.65 1602.46C1458.08 1605.79 1449.13 1606.74 1443.69 1607.85C1432.52 1610.13 1468.16 1618.02 1473.43 1624.8C1474.57 1626.28 1471.24 1628.59 1468.89 1629.91C1456.5 1636.86 1439.53 1632.71 1437.61 1632.99C1435.57 1633.28 1467.52 1642.84 1510.78 1654.33C1526.51 1658.51 1529.4 1659.95 1531.66 1661.62C1545.52 1671.9 1538.62 1700.72 1533.21 1715.47C1528.78 1727.54 1516.76 1736.71 1502.42 1745.72C1497.59 1748.75 1490.05 1751.17 1472.37 1755.44C1454.68 1759.7 1426.68 1765.21 1407.94 1768.14C1380.77 1772.39 1364.94 1770.34 1350.94 1767.48C1335.77 1764.38 1324.93 1759.04 1316.45 1753.41C1303.67 1744.91 1293.25 1735.12 1284.34 1729.57C1275.81 1724.25 1253.41 1716.6 1224.51 1707.43C1196.26 1698.45 1166.37 1705.4 1153.11 1709.48C1140.9 1713.23 1130.39 1733.69 1124.79 1748.68C1122.92 1753.7 1126.48 1758.62 1128.7 1762.7C1132.7 1770 1145.78 1774.01 1194.81 1780.85C1230.2 1785.78 1296.64 1788.35 1334.93 1791.52C1373.22 1794.69 1381.64 1796.35 1383.24 1803.99C1384.84 1811.64 1379.37 1825.22 1350.04 1833.74C1320.72 1842.25 1267.7 1845.27 1239.13 1846.65M1239.13 1846.65C1208.06 1848.14 1203.53 1847.27 1200.24 1848.1C1198.62 1848.51 1198 1850.58 1197.88 1852.26C1197.65 1855.61 1199.89 1858.76 1202.22 1861.72C1203.71 1863.21 1205.81 1864.68 1208.37 1865.44C1210.93 1866.19 1213.87 1866.19 1216.91 1866.19C1240.59 1909.46 1307.01 1985.6 1383.24 1944C1459.48 1902.4 1500.03 1853.16 1510.78 1833.74C1525.47 1851.82 1538.57 1899.2 1473.43 1944C1391.99 2000 1389.16 2095.45 1316.57 2000C1243.98 1904.55 1171.58 2021.81 1171.58 1944C1171.58 1881.75 1140.39 1844.56 1124.79 1833.74C1100.29 1854.49 1059.04 1900.8 1090 1920C1128.7 1944 1034 1960.05 1030 1833.74C1026.8 1732.69 1055.33 1761.14 1070 1788C1043.33 1765.22 998 1708.05 1030 1661.62C1062 1615.19 1096.67 1659.86 1110 1688C1098.04 1668.64 1085.03 1629.91 1128.7 1629.91C1172.38 1629.91 1163.17 1646.19 1153.11 1654.33M1239.13 1846.65C1288.84 1855.13 1377.46 1881.69 1334.23 1920C1280.18 1967.89 1401.79 1919.45 1437.61 1861.72C1473.43 1803.99 1448.42 1779.05 1533.21 1791.52M1153.11 1654.33C1157.4 1626.61 1146.8 1576.08 1070 1595.68M1153.11 1654.33C1200.68 1633.05 1290.63 1609.99 1269.9 1688C1243.98 1785.51 1466.26 1726.85 1443.69 1707.43C1425.63 1691.89 1375.59 1706.31 1352.83 1715.47C1337.03 1698.02 1322.75 1661.35 1391.99 1654.33" stroke="#A84C0F" stroke-width="10"/>
<path d="M1702 1229.3C1702 1404.53 1840.32 1546.59 2010.95 1546.59C2073.78 1546.59 2132.22 1527.33 2181 1494.24C2149 1200.04 1989 994.346 1913 928.277C1790.38 970.341 1702 1089.22 1702 1229.3Z" fill="#F99A3D"/>
<path d="M2041.87 1100.18C2036.2 1093.27 2009.07 1089.32 1974.98 1083.58C1953.07 1079.9 1935.6 1075.4 1914.3 1071.34C1874.05 1063.66 1864.12 1052.81 1857.16 1044.26C1849.04 1034.29 1855.75 1023.31 1858.94 1017.44C1862.13 1011.56 1880.52 1008.64 1902.58 1007.22C1916.3 1006.34 1927.15 1021.16 1937.91 1031.77C1950.59 1044.29 1964.72 1011.81 1974.98 1007.22M2114.24 1247.48C2089.55 1246.82 2095.94 1250.34 2081.94 1247.48C2066.77 1244.38 2055.93 1239.04 2047.45 1233.41C2034.67 1224.91 2024.25 1215.12 2015.34 1209.57C2006.81 1204.25 1984.41 1196.6 1955.51 1187.43C1927.26 1178.45 1897.37 1185.4 1884.11 1189.48C1871.9 1193.23 1861.39 1213.69 1855.79 1228.68C1853.92 1233.7 1857.48 1238.62 1859.7 1242.7C1863.7 1250 1876.78 1254.01 1925.81 1260.85C1961.2 1265.78 2027.64 1268.35 2065.93 1271.52C2104.22 1274.69 2112.64 1276.35 2114.24 1283.99C2115.84 1291.64 2110.37 1305.22 2081.04 1313.74C2051.72 1322.25 1998.7 1325.27 1970.13 1326.65M1970.13 1326.65C1939.06 1328.14 1934.53 1327.27 1931.24 1328.1C1929.62 1328.51 1929 1330.58 1928.88 1332.26C1928.65 1335.61 1930.89 1338.76 1933.22 1341.72C1934.71 1343.21 1936.81 1344.68 1939.37 1345.44C1941.93 1346.19 1944.87 1346.19 1947.91 1346.19C1971.59 1389.46 2038.01 1465.6 2114.24 1424C2133.38 1413.56 2150.27 1402.63 2165 1391.82M1970.13 1326.65C2019.84 1335.13 2108.46 1361.69 2065.23 1400C2017.36 1442.41 2112.1 1390.88 2155 1354.72M2175 1452C2093.56 1508 2087.12 1532 2047.57 1480C1974.98 1384.55 1902.58 1501.81 1902.58 1424C1902.58 1361.75 1871.39 1324.56 1855.79 1313.74C1831.29 1334.49 1801 1354.72 1821 1400C1839.4 1441.66 1765 1440.05 1761 1313.74C1759.66 1271.52 1797.33 1252.14 1812 1279C1812 1209.57 1729 1188.05 1761 1141.62C1793 1095.19 1827.67 1139.86 1841 1168C1829.04 1148.64 1816.03 1109.91 1859.7 1109.91C1903.38 1109.91 1894.17 1126.19 1884.11 1134.33M1884.11 1134.33C1888.4 1106.61 1877.8 1056.08 1801 1075.68M1884.11 1134.33C1931.68 1113.05 2021.63 1089.99 2000.9 1168M2072.83 1195.47C2061.76 1183.24 2051.44 1161.6 2070.04 1147.31" stroke="#A84C0F" stroke-width="10"/>
<path d="M1317.86 309.419C1317.86 398.301 1270.88 351.887 1212.93 351.887C1154.98 351.887 1108 398.301 1108 309.419C1108 220.537 1154.98 94 1212.93 94C1270.88 94 1317.86 220.537 1317.86 309.419Z" fill="black"/>
<path d="M1422.79 309.419C1422.79 398.301 1375.81 351.887 1317.86 351.887C1259.91 351.887 1212.93 398.301 1212.93 309.419C1212.93 220.537 1259.91 94 1317.86 94C1375.81 94 1422.79 220.537 1422.79 309.419Z" fill="black"/>
<path d="M1102.23 333.255C1098.54 339.832 1097 344 1097 344C1097 340.119 1098.83 336.538 1102.23 333.255C1115.36 309.863 1155.65 256.002 1250.25 250.877C1251.6 216.008 1255.46 148 1265 148C1282.29 148 1288.07 216.994 1289.88 251.628C1378.52 260.007 1416.21 312.196 1428.3 334.216C1431.36 337.244 1433 340.506 1433 344C1433 344 1431.61 340.235 1428.3 334.216C1390.88 297.15 1141.61 295.221 1102.23 333.255Z" fill="#545454"/>
<path d="M1573 712.049C1573 894.027 1435.1 799 1265 799C1094.9 799 957 894.027 957 712.049C957 530.072 1035 271 1265 271C1495 271 1573 530.072 1573 712.049Z" fill="black"/>
</svg>
