<svg width="2900" height="2600" viewBox="0 0 2900 2600" fill="none" xmlns="http://www.w3.org/2000/svg">
<path d="M400.447 1387.68C279.1 1175.87 241.416 861.062 373.918 785.152C506.421 709.241 758.934 900.974 880.281 1112.79C1001.63 1324.6 880.948 1510.55 748.445 1586.46C615.943 1662.37 521.794 1599.5 400.447 1387.68Z" fill="#C01E1E"/>
<path d="M198.833 1042.09C196.669 1039.88 194.95 1037.25 193.777 1034.34C192.604 1031.44 192 1028.33 192 1025.18C192 1022.03 192.604 1018.92 193.777 1016.01C194.95 1013.11 196.669 1010.48 198.833 1008.26L588.525 604.604C590.662 602.388 593.202 600.629 595.999 599.429C598.795 598.229 601.793 597.611 604.821 597.611C607.849 597.611 610.847 598.229 613.643 599.429C616.439 600.629 618.979 602.388 621.117 604.604L652.761 637.386C654.925 639.598 656.644 642.232 657.817 645.135C658.99 648.039 659.594 651.154 659.594 654.301C659.594 657.448 658.99 660.563 657.817 663.466C656.644 666.37 654.925 669.004 652.761 671.216L263.177 1074.88C261.039 1077.1 258.495 1078.87 255.692 1080.08C252.889 1081.28 249.884 1081.9 246.848 1081.9C243.812 1081.9 240.806 1081.28 238.003 1080.08C235.201 1078.87 232.657 1077.1 230.518 1074.88L198.833 1042.09Z" fill="black"/>
<path d="M839.68 373.734C839.68 534.518 771.345 586.795 725.501 637.29C679.657 687.785 632.193 678.076 600.793 644.997C569.393 611.919 558.407 585.013 604.251 534.518C650.096 484.023 810.332 478.473 839.68 373.734Z" fill="#060606"/>
<path d="M886.282 174.549C887.988 215.337 884.648 281.237 843.088 329.584C838.895 229.352 756.227 175.68 754.521 134.892C752.815 94.1027 782.143 57.4152 826.665 69.2547C871.187 81.0942 884.575 133.76 886.282 174.549Z" fill="#060606"/>
<path d="M447.774 782.524C470.754 809.48 449.311 865.494 399.88 907.634C350.448 949.774 291.746 962.083 268.766 935.126C245.786 908.17 267.23 852.156 316.661 810.016C366.093 767.876 424.794 755.567 447.774 782.524Z" fill="#C01E1E"/>
<path d="M2359 2397C1887 2157 2359 2036.31 2359 1526C2359 1238.6 2227.79 981.848 2022 812.378C2022 1227 1679.75 1438.5 1449.35 1438.5C1218.95 1438.5 848 1203 848 812.378C642.213 981.848 511 1238.6 511 1526C511 2084.33 1077 2271.12 1496 2333C1639 2357 2056 2397 2359 2397Z" fill="#C01E1E"/>
<ellipse cx="1459.95" cy="1712.02" rx="308.946" ry="317.296" fill="#F99A3D"/>
<path d="M1496.57 1595.2C1496.36 1593.17 1494.88 1587.8 1490.87 1582.9C1485.2 1575.99 1458.07 1572.05 1423.98 1566.31C1402.07 1562.62 1384.6 1558.12 1363.3 1554.06C1323.05 1546.39 1313.12 1535.53 1306.16 1526.98C1298.04 1517.02 1304.75 1506.03 1307.94 1500.16C1311.13 1494.29 1329.52 1491.36 1351.58 1489.94C1365.3 1489.06 1376.15 1503.88 1386.91 1514.49C1399.59 1527.01 1425.47 1491.02 1435.72 1486.43C1439.01 1484.96 1442.75 1485.59 1446.78 1486.14C1452.33 1486.9 1456.79 1490.39 1460.18 1494.27C1468.4 1503.66 1466.59 1515.01 1465.95 1522.94C1465.69 1526.18 1464.89 1529.53 1464.57 1531.02C1462.96 1538.46 1478.01 1512.91 1496.18 1503.7C1500.97 1501.27 1506.88 1501.37 1510.54 1501.63C1514.21 1501.89 1515.89 1503.18 1517.18 1505.49C1523.58 1517 1515.3 1526.93 1514.23 1527.96C1512.47 1529.65 1518.87 1522.69 1524.07 1520.38C1529.21 1518.09 1534.61 1517.67 1538.86 1518.22C1540.94 1518.49 1542.26 1520.61 1542.92 1522.56C1543.57 1524.51 1543.36 1526.72 1542.41 1528.86C1540.44 1533.3 1534.04 1536.76 1528.82 1542.84C1525.69 1546.49 1529.29 1554.44 1531.31 1558.4C1533.34 1562.37 1535.65 1562.92 1542 1562.28C1558.8 1560.6 1571.61 1557 1575.86 1554.14C1588.06 1545.92 1579.31 1524.06 1571.99 1509.75C1568.25 1502.44 1554.5 1493.44 1532.83 1479.58C1520.64 1471.79 1504.28 1464.64 1488.75 1458.81C1473.21 1452.97 1458.55 1449.23 1447.84 1446.84C1437.13 1444.45 1430.82 1443.53 1449.9 1447.8C1468.98 1452.06 1513.65 1461.55 1539.82 1467.62C1572.58 1475.23 1581.97 1480.93 1587.59 1486.02C1598.54 1495.91 1599 1511.31 1601.12 1519.58C1603.47 1528.74 1614.93 1494.91 1624.28 1490.33C1626.39 1489.3 1628.53 1490.04 1630.98 1491.15C1647.97 1498.81 1657.02 1529.4 1658.54 1550.3C1659.06 1557.47 1651.23 1561.85 1644.65 1565.18C1638.08 1568.51 1629.13 1569.46 1623.69 1570.57C1612.52 1572.85 1648.16 1580.74 1653.43 1587.53C1654.57 1589.01 1651.24 1591.31 1648.89 1592.63C1636.5 1599.59 1619.53 1595.44 1617.61 1595.71C1615.57 1596 1647.52 1605.56 1690.78 1617.06C1706.51 1621.24 1709.4 1622.67 1711.66 1624.34C1725.52 1634.62 1718.62 1663.45 1713.21 1678.19C1708.78 1690.27 1696.76 1699.44 1682.42 1708.44C1677.59 1711.47 1670.05 1713.89 1652.37 1718.16C1634.68 1722.43 1606.68 1727.93 1587.94 1730.86C1560.77 1735.11 1544.94 1733.06 1530.94 1730.2C1515.77 1727.1 1504.93 1721.76 1496.45 1716.13C1483.67 1707.63 1473.25 1697.84 1464.34 1692.29C1455.81 1686.97 1433.41 1679.33 1404.51 1670.15C1376.26 1661.17 1346.37 1668.12 1333.11 1672.2C1320.9 1675.96 1310.39 1696.41 1304.79 1711.4C1302.92 1716.43 1306.48 1721.35 1308.7 1725.42C1312.7 1732.73 1325.78 1736.74 1374.81 1743.57C1410.2 1748.5 1476.64 1751.07 1514.93 1754.24C1553.22 1757.42 1561.64 1759.07 1563.24 1766.71C1564.84 1774.36 1559.37 1787.95 1530.04 1796.46C1500.72 1804.97 1447.7 1807.99 1419.13 1809.37M1419.13 1809.37C1388.06 1810.86 1383.53 1810 1380.24 1810.82C1378.62 1811.23 1378 1813.3 1377.88 1814.98C1377.65 1818.33 1379.89 1821.48 1382.22 1824.44C1383.71 1825.93 1385.81 1827.4 1388.37 1828.16C1390.93 1828.92 1393.87 1828.92 1396.91 1828.92C1420.59 1872.18 1487.01 1948.32 1563.24 1906.72C1639.48 1865.12 1680.03 1815.88 1690.78 1796.46C1705.47 1814.55 1718.57 1861.92 1653.43 1906.72C1571.99 1962.72 1569.16 2058.18 1496.57 1962.72C1423.98 1867.27 1351.58 1984.53 1351.58 1906.72C1351.58 1844.48 1320.39 1807.28 1304.79 1796.46C1280.29 1817.21 1239.04 1863.52 1270 1882.72C1308.7 1906.72 1214 1922.77 1210 1796.46C1206.8 1695.41 1235.33 1723.86 1250 1750.72C1223.33 1727.94 1178 1670.77 1210 1624.34C1242 1577.92 1276.67 1622.58 1290 1650.72C1278.04 1631.36 1265.03 1592.63 1308.7 1592.63C1352.38 1592.63 1343.17 1608.91 1333.11 1617.06M1419.13 1809.37C1468.84 1817.86 1557.46 1844.41 1514.23 1882.72C1460.18 1930.61 1581.79 1882.17 1617.61 1824.44C1653.43 1766.71 1628.42 1741.77 1713.21 1754.24M1333.11 1617.06C1337.4 1589.34 1326.8 1538.8 1250 1558.4M1333.11 1617.06C1380.68 1595.77 1470.63 1572.71 1449.9 1650.72C1423.98 1748.24 1646.26 1689.57 1623.69 1670.15C1605.63 1654.61 1555.59 1669.04 1532.83 1678.19C1517.03 1660.74 1502.75 1624.08 1571.99 1617.06" stroke="#A84C0F" stroke-width="10"/>
<path d="M1943.6 1233.89C1918.42 1407.31 2034.88 1567.78 2203.74 1592.3C2265.92 1601.33 2326.53 1590.67 2379.55 1564.93C2390.17 1269.18 2261.39 1042.63 2195.68 966.327C2068.29 990.331 1963.74 1095.27 1943.6 1233.89Z" fill="#F99A3D"/>
<path d="M2298.5 1154.97C2293.89 1147.31 2267.61 1139.51 2234.69 1128.93C2213.54 1122.13 2196.9 1115.17 2176.4 1108.09C2137.67 1094.71 2129.41 1082.54 2123.75 1073.08C2117.15 1062.05 2125.37 1052.14 2129.36 1046.8C2133.36 1041.44 2151.98 1041.19 2174.02 1042.95C2187.72 1044.05 2196.33 1060.28 2205.45 1072.33C2216.21 1086.54 2234.86 1056.42 2245.67 1053.36M2348.95 1311.14C2324.61 1306.93 2330.43 1311.34 2316.99 1306.5C2302.42 1301.25 2292.46 1294.4 2284.88 1287.61C2273.45 1277.37 2264.55 1266.18 2256.53 1259.41C2248.85 1252.92 2227.78 1242.13 2200.5 1228.89C2173.83 1215.95 2143.26 1218.53 2129.54 1220.66C2116.93 1222.63 2103.58 1241.35 2095.89 1255.39C2093.31 1260.09 2096.13 1265.47 2097.75 1269.82C2100.65 1277.63 2113.01 1283.48 2160.56 1297.29C2194.87 1307.26 2260.25 1319.34 2297.69 1327.99C2335.12 1336.63 2343.22 1339.48 2343.71 1347.27C2344.19 1355.07 2336.82 1367.73 2306.58 1371.94C2276.33 1376.14 2223.43 1371.52 2194.96 1368.77M2194.96 1368.77C2163.99 1365.78 2159.64 1364.28 2156.26 1364.62C2154.6 1364.79 2153.69 1366.75 2153.33 1368.4C2152.62 1371.68 2154.39 1375.12 2156.26 1378.38C2157.52 1380.07 2159.39 1381.83 2161.82 1382.94C2164.24 1384.06 2167.16 1384.48 2170.16 1384.92C2187.38 1431.14 2242.16 1516.04 2323.58 1485.83C2344.02 1478.24 2362.3 1469.86 2378.44 1461.28M2194.96 1368.77C2242.94 1384.32 2326.82 1423.33 2278.53 1455.03C2225.06 1490.12 2326.22 1452.74 2373.87 1423.12M2379.68 1522.27C2291.05 1565.98 2281.22 1588.81 2249.56 1531.66C2191.44 1426.77 2102.93 1532.4 2114.12 1455.4C2123.06 1393.81 2097.54 1352.51 2083.67 1339.56C2056.44 1356.58 2023.55 1372.24 2036.83 1419.93C2049.06 1463.8 1975.66 1451.51 1989.86 1325.94C1994.6 1283.97 2034.66 1270.2 2045.32 1298.89C2055.3 1230.18 1976.25 1196.96 2014.59 1155.61C2052.93 1114.26 2080.82 1163.45 2089.97 1193.21C2080.92 1172.33 2073.61 1132.13 2116.83 1138.41C2160.05 1144.69 2148.6 1159.48 2137.47 1166.09M2137.47 1166.09C2145.71 1139.28 2142.48 1087.74 2063.66 1096.1M2137.47 1166.09C2187.6 1151.87 2279.94 1141.97 2248.21 1216.19M2315.44 1253.72C2306.25 1240.03 2299.15 1217.12 2319.61 1205.66" stroke="#A84C0F" stroke-width="10"/>
<path d="M1491.86 250.419C1491.86 339.301 1444.88 292.887 1386.93 292.887C1328.98 292.887 1282 339.301 1282 250.419C1282 161.537 1328.98 35 1386.93 35C1444.88 35 1491.86 161.537 1491.86 250.419Z" fill="black"/>
<path d="M1596.79 250.419C1596.79 339.301 1549.81 292.887 1491.86 292.887C1433.91 292.887 1386.93 339.301 1386.93 250.419C1386.93 161.537 1433.91 35 1491.86 35C1549.81 35 1596.79 161.537 1596.79 250.419Z" fill="black"/>
<path d="M1276.23 274.255C1272.54 280.832 1271 285 1271 285C1271 281.119 1272.83 277.538 1276.23 274.255C1289.36 250.863 1329.65 197.002 1424.25 191.877C1425.6 157.008 1429.46 89 1439 89C1456.29 89 1462.07 157.994 1463.88 192.628C1552.52 201.007 1590.21 253.196 1602.3 275.216C1605.36 278.244 1607 281.506 1607 285C1607 285 1605.61 281.235 1602.3 275.216C1564.88 238.15 1315.61 236.221 1276.23 274.255Z" fill="#FEC300"/>
<path d="M1747 653.049C1747 835.027 1609.1 740 1439 740C1268.9 740 1131 835.027 1131 653.049C1131 471.072 1209 212 1439 212C1669 212 1747 471.072 1747 653.049Z" fill="black"/>
<path d="M1163 649.5C1163 675.734 1154.2 697 1131 697C1107.8 697 1089 675.734 1089 649.5C1089 623.266 1107.8 602 1131 602C1154.2 602 1163 623.266 1163 649.5Z" fill="#FEC300"/>
<path d="M1789 649.5C1789 675.734 1770.2 697 1747 697C1723.8 697 1725 675.734 1725 649.5C1725 623.266 1723.8 602 1747 602C1770.2 602 1789 623.266 1789 649.5Z" fill="#FEC300"/>
</svg>
