<svg width="79" height="145" viewBox="0 0 79 145" fill="none" xmlns="http://www.w3.org/2000/svg">
<path d="M37.4159 45.5495C30.9645 60.2548 26.7896 75.732 21.6372 91.099C18.759 99.6831 16.9415 106.96 18.759 113.157C19.8579 116.904 20.6398 119.154 23.2772 122.187C26.1101 125.444 27.1309 126.178 35.5988 130.679C44.0667 135.181 60.6986 141.822 79 144.994C69.268 145.076 59.5504 144.338 49.9905 142.788C40.1758 141.313 30.6378 138.728 21.6305 135.104C19.6821 134.002 17.3007 132.899 15.1792 131.796C12.876 130.508 10.7166 129.043 8.7278 127.421C4.59019 123.97 1.6794 119.6 0.328041 114.811C-0.626292 105.851 0.506565 96.8197 3.66197 88.2315C9.07964 72.296 16.4366 56.8826 25.6139 42.2408C34.3488 27.6002 44.2585 13.4867 55.2729 0C48.8215 15.367 44.6371 29.0895 37.4159 45.5495Z" fill="#060606"/>
</svg>
