<svg width="2900" height="2600" viewBox="0 0 2900 2600" fill="none" xmlns="http://www.w3.org/2000/svg">
<path d="M1427.42 1003.55C1420.96 1018.25 1416.79 1033.73 1411.64 1049.1C1408.76 1057.68 1406.94 1064.96 1408.76 1071.16C1409.86 1074.9 1410.64 1077.15 1413.28 1080.19C1416.11 1083.44 1417.13 1084.18 1425.6 1088.68C1434.07 1093.18 1450.7 1099.82 1469 1102.99C1459.27 1103.08 1449.55 1102.34 1439.99 1100.79C1430.18 1099.31 1420.64 1096.73 1411.63 1093.1C1409.68 1092 1407.3 1090.9 1405.18 1089.8C1402.88 1088.51 1400.72 1087.04 1398.73 1085.42C1394.59 1081.97 1391.68 1077.6 1390.33 1072.81C1389.37 1063.85 1390.51 1054.82 1393.66 1046.23C1399.08 1030.3 1406.44 1014.88 1415.61 1000.24C1424.35 985.6 1434.26 971.487 1445.27 958C1438.82 973.367 1434.64 987.09 1427.42 1003.55Z" fill="#060606"/>
</svg>
