<svg width="2900" height="2600" viewBox="0 0 2900 2600" fill="none" xmlns="http://www.w3.org/2000/svg">
<path d="M1423 994C1414.43 1015.4 1411.14 1028.78 1407.75 1041.39C1404.36 1054 1405.02 1065.5 1408.28 1075.66C1410.07 1081.25 1412.18 1084.95 1415.58 1088.8C1418.98 1092.66 1426.96 1099.15 1432 1102.5C1444.11 1110.55 1462 1114 1484 1123.99C1471.07 1124.11 1458.15 1123.04 1445.44 1120.78C1432.4 1118.63 1419.72 1114.87 1407.75 1109.6C1405.16 1108 1401.99 1106.39 1399.17 1104.79C1396.11 1102.91 1393.24 1100.78 1390.6 1098.42C1385.1 1093.4 1381.23 1087.04 1379.44 1080.07C1378.17 1067.03 1379.67 1053.89 1383.87 1041.39C1391.07 1018.2 1395.55 1009.31 1407.75 988C1415.58 974.32 1425.36 958.625 1440 939C1435.54 964 1431.57 972.601 1423 994Z" fill="#060606"/>
</svg>
