<svg width="2900" height="2600" viewBox="0 0 2900 2600" fill="none" xmlns="http://www.w3.org/2000/svg">
<path d="M1503 1244C1503 1253.28 1495.41 1262.18 1481.91 1268.75C1468.41 1275.31 1450.1 1279 1431 1279C1411.9 1279 1393.59 1275.31 1380.09 1268.75C1366.59 1262.18 1359 1253.28 1359 1244L1431 1244H1503Z" fill="black"/>
<path d="M1503 1220C1503 1210.72 1495.41 1201.82 1481.91 1195.25C1468.41 1188.69 1450.1 1185 1431 1185C1411.9 1185 1393.59 1188.69 1380.09 1195.25C1366.59 1201.82 1359 1210.72 1359 1220L1431 1220H1503Z" fill="black"/>
</svg>
