<svg width="2900" height="2600" viewBox="0 0 2900 2600" fill="none" xmlns="http://www.w3.org/2000/svg">
<circle cx="825.772" cy="982.228" r="162.772" fill="black"/>
<circle cx="877.593" cy="764.314" r="162.772" fill="black"/>
<circle cx="1025.08" cy="558.358" r="162.772" fill="black"/>
<circle cx="1241.67" cy="412.195" r="162.772" fill="black"/>
<circle cx="162.772" cy="162.772" r="162.772" transform="matrix(-1 0 0 1 2214.98 819.457)" fill="black"/>
<circle cx="162.772" cy="162.772" r="162.772" transform="matrix(-1 0 0 1 2163.16 601.542)" fill="black"/>
<circle cx="162.772" cy="162.772" r="162.772" transform="matrix(-1 0 0 1 2015.67 395.586)" fill="black"/>
<circle cx="162.772" cy="162.772" r="162.772" transform="matrix(-1 0 0 1 1799.08 249.424)" fill="black"/>
<circle cx="1454.27" cy="341.772" r="162.772" fill="black"/>
<path d="M1886.78 800.732C1886.78 899.78 1697.98 748.392 1487.31 729.814L1457.54 627.857L1426.91 729.814C1210.11 748.392 1012.46 899.78 1012.46 800.732C1012.46 692.803 1202.65 496.571 1449.62 496.571C1696.59 496.571 1886.78 692.803 1886.78 800.732Z" fill="black"/>
<circle cx="904.168" cy="790.889" r="162.772" fill="black"/>
<circle cx="162.772" cy="162.772" r="162.772" transform="matrix(-1 0 0 1 2136.58 628.117)" fill="black"/>
</svg>
