<svg width="2900" height="2600" viewBox="0 0 2900 2600" fill="none" xmlns="http://www.w3.org/2000/svg">
<path d="M1431.2 152.788C1431.2 152.788 1800.02 253 1918.58 480.081C1961.67 434.831 2046.49 370.003 2060.02 309C1996.02 309 1965.78 277.677 1939.68 253C1799.8 120.762 1461.27 96.2885 1461.27 96.2885L1431.2 152.788Z" fill="#FE0000"/>
<path d="M1473.02 253.419C1473.02 342.301 1457.77 295.887 1438.95 295.887C1420.13 295.887 1404.88 342.301 1404.88 253.419C1404.88 164.536 1420.13 37.9999 1438.95 37.9999C1457.77 37.9999 1473.02 164.536 1473.02 253.419Z" fill="#B99300"/>
<path d="M1747.02 656.049C1747.02 838.027 1609.12 743 1439.02 743C1268.92 743 1131.02 838.027 1131.02 656.049C1131.02 474.072 1209.02 215 1439.02 215C1669.02 215 1747.02 474.072 1747.02 656.049Z" fill="black"/>
<path d="M1160.02 745C1160.02 745 1179.11 631.801 1415.13 621.579L1397.36 621.752C1397.36 621.752 1413.14 201 1439.02 201C1485.6 201 1490.78 620.843 1490.78 620.843L1469.05 621.055C1719.83 626.737 1732.02 745 1732.02 745C1684.02 801 1561.22 743.658 1439.02 745C1308.49 746.434 1220.02 801 1160.02 745Z" fill="#B99300"/>
<ellipse cx="1160" cy="704.993" rx="47" ry="63" fill="#B99300"/>
<ellipse cx="1718" cy="704.993" rx="47" ry="63" fill="#B99300"/>
</svg>
