<svg width="2900" height="2600" viewBox="0 0 2900 2600" fill="none" xmlns="http://www.w3.org/2000/svg">
<path d="M1487.86 272.419C1487.86 361.301 1440.88 314.887 1382.93 314.887C1324.98 314.887 1278 361.301 1278 272.419C1278 183.537 1324.98 57 1382.93 57C1440.88 57 1487.86 183.537 1487.86 272.419Z" fill="black"/>
<path d="M1592.79 272.419C1592.79 361.301 1545.81 314.887 1487.86 314.887C1429.91 314.887 1382.93 361.301 1382.93 272.419C1382.93 183.537 1429.91 57 1487.86 57C1545.81 57 1592.79 183.537 1592.79 272.419Z" fill="black"/>
<path d="M1272.23 296.255C1268.54 302.832 1267 307 1267 307C1267 303.119 1268.83 299.538 1272.23 296.255C1285.36 272.863 1325.65 219.002 1420.25 213.877C1421.6 179.008 1425.46 111 1435 111C1452.29 111 1458.07 179.994 1459.88 214.628C1548.52 223.007 1586.21 275.196 1598.3 297.216C1601.36 300.244 1603 303.506 1603 307C1603 307 1601.61 303.235 1598.3 297.216C1560.88 260.15 1311.61 258.221 1272.23 296.255Z" fill="#FEC300"/>
<path d="M1743 675.049C1743 857.027 1605.1 762 1435 762C1264.9 762 1127 857.027 1127 675.049C1127 493.072 1205 234 1435 234C1665 234 1743 493.072 1743 675.049Z" fill="black"/>
<path d="M1159 671.5C1159 697.734 1150.2 719 1127 719C1103.8 719 1085 697.734 1085 671.5C1085 645.266 1103.8 624 1127 624C1150.2 624 1159 645.266 1159 671.5Z" fill="#FEC300"/>
<path d="M1785 671.5C1785 697.734 1766.2 719 1743 719C1719.8 719 1721 697.734 1721 671.5C1721 645.266 1719.8 624 1743 624C1766.2 624 1785 645.266 1785 671.5Z" fill="#FEC300"/>
</svg>
