<svg width="285" height="344" viewBox="0 0 285 344" fill="none" xmlns="http://www.w3.org/2000/svg">
<path d="M284.511 85.3531C284.511 73.4343 221.168 21.5904 203.949 13.1626C186.729 4.73472 163.375 8.99844e-07 139.023 0C114.671 -8.99843e-07 91.3159 4.73472 74.0963 13.1626C56.8768 21.5904 3.67706e-06 73.4343 0 85.3531C-3.67706e-06 97.2719 139.023 28.4508 139.023 28.4508C139.023 28.4508 284.511 97.2719 284.511 85.3531Z" fill="black"/>
<path d="M37.5038 157.781C37.5038 77.7446 84.4028 119.539 142.256 119.539C200.109 119.539 247.008 77.7446 247.008 157.781C247.008 237.817 198.29 344 156.376 344C114.463 344 37.5038 237.817 37.5038 157.781Z" fill="black"/>
</svg>
