<svg width="2900" height="2600" viewBox="0 0 2900 2600" fill="none" xmlns="http://www.w3.org/2000/svg">
<path d="M1655 1277C1655 1258.57 1557.04 1178.39 1530.41 1165.36C1503.78 1152.32 1467.66 1145 1430 1145C1392.34 1145 1356.22 1152.32 1329.59 1165.36C1302.96 1178.39 1215 1258.57 1215 1277C1215 1295.43 1430 1189 1430 1189C1430 1189 1655 1295.43 1655 1277Z" fill="black"/>
<path d="M1275.97 1381.01C1275.97 1257.23 1348.5 1321.87 1437.97 1321.87C1527.44 1321.87 1599.97 1257.23 1599.97 1381.01C1599.97 1504.78 1524.62 1669 1459.8 1669C1394.98 1669 1275.97 1504.78 1275.97 1381.01Z" fill="black"/>
</svg>
